Hubballi-Regular-21-22-23-25.ufo
<glyph name="exclam" format="1">
  <advance width="327"/>
  <unicode hex="0021"/>
  <outline>
    <contour>
      <point x="137" y="266" type="curve" smooth="yes"/>
      <point x="144" y="544" type="line" smooth="yes"/>
      <point x="144" y="557"/>
      <point x="156" y="568"/>
      <point x="170" y="568" type="curve" smooth="yes"/>
      <point x="183" y="568"/>
      <point x="194" y="556"/>
      <point x="194" y="542" type="curve" smooth="yes"/>
      <point x="187" y="264" type="line" smooth="yes"/>
      <point x="187" y="251"/>
      <point x="175" y="240"/>
      <point x="161" y="240" type="curve" smooth="yes"/>
      <point x="148" y="240"/>
      <point x="137" y="252"/>
    </contour>
    <component base="period" xOffset="49"/>
    <component base="period" xOffset="49"/>
  </outline>
</glyph>
<glyph name="plus" format="1">
  <advance width="530"/>
  <unicode hex="002B"/>
  <outline>
    <contour>
      <point x="96" y="289" type="curve" smooth="yes"/>
      <point x="433" y="289" type="line" smooth="yes"/>
      <point x="447" y="289"/>
      <point x="458" y="278"/>
      <point x="458" y="264" type="curve" smooth="yes"/>
      <point x="458" y="251"/>
      <point x="447" y="239"/>
      <point x="433" y="239" type="curve" smooth="yes"/>
      <point x="96" y="239" type="line" smooth="yes"/>
      <point x="83" y="239"/>
      <point x="71" y="251"/>
      <point x="71" y="264" type="curve" smooth="yes"/>
      <point x="71" y="278"/>
      <point x="83" y="289"/>
    </contour>
    <contour>
      <point x="240" y="100" type="curve" smooth="yes"/>
      <point x="240" y="427" type="line" smooth="yes"/>
      <point x="240" y="441"/>
      <point x="252" y="452"/>
      <point x="265" y="452" type="curve" smooth="yes"/>
      <point x="279" y="452"/>
      <point x="290" y="441"/>
      <point x="290" y="427" type="curve" smooth="yes"/>
      <point x="290" y="100" type="line" smooth="yes"/>
      <point x="290" y="87"/>
      <point x="279" y="75"/>
      <point x="265" y="75" type="curve" smooth="yes"/>
      <point x="252" y="75"/>
      <point x="240" y="87"/>
    </contour>
  </outline>
</glyph>
<glyph name="zero" format="1">
  <advance width="566"/>
  <unicode hex="0030"/>
  <outline>
    <contour>
      <point x="284" y="541" type="curve" smooth="yes"/>
      <point x="404" y="541"/>
      <point x="506" y="430"/>
      <point x="506" y="267" type="curve" smooth="yes"/>
      <point x="506" y="113"/>
      <point x="423" y="-10"/>
      <point x="284" y="-10" type="curve" smooth="yes"/>
      <point x="156" y="-10"/>
      <point x="59" y="113"/>
      <point x="59" y="265" type="curve"/>
      <point x="59" y="430"/>
      <point x="154" y="541"/>
    </contour>
    <contour>
      <point x="284" y="491" type="curve" smooth="yes"/>
      <point x="178" y="491"/>
      <point x="109" y="394"/>
      <point x="109" y="265" type="curve" smooth="yes"/>
      <point x="109" y="147"/>
      <point x="180" y="40"/>
      <point x="284" y="40" type="curve" smooth="yes"/>
      <point x="398" y="40"/>
      <point x="456" y="147"/>
      <point x="456" y="267" type="curve" smooth="yes"/>
      <point x="456" y="394"/>
      <point x="382" y="491"/>
    </contour>
  </outline>
</glyph>
<glyph name="two" format="1">
  <advance width="508"/>
  <unicode hex="0032"/>
  <outline>
    <contour>
      <point x="69" y="50" type="curve" smooth="yes"/>
      <point x="235" y="209" type="line" smooth="yes"/>
      <point x="334" y="304"/>
      <point x="370" y="345"/>
      <point x="370" y="403" type="curve" smooth="yes"/>
      <point x="370" y="450"/>
      <point x="330" y="492"/>
      <point x="258" y="492" type="curve" smooth="yes"/>
      <point x="211" y="492"/>
      <point x="163" y="478"/>
      <point x="120" y="452" type="curve" smooth="yes"/>
      <point x="109" y="445"/>
      <point x="93" y="448"/>
      <point x="86" y="460" type="curve" smooth="yes"/>
      <point x="79" y="471"/>
      <point x="82" y="487"/>
      <point x="94" y="494" type="curve" smooth="yes"/>
      <point x="145" y="526"/>
      <point x="201" y="542"/>
      <point x="258" y="542" type="curve" smooth="yes"/>
      <point x="370" y="542"/>
      <point x="420" y="472"/>
      <point x="420" y="403" type="curve" smooth="yes"/>
      <point x="420" y="337"/>
      <point x="388" y="286"/>
      <point x="269" y="173" type="curve" smooth="yes"/>
      <point x="103" y="14" type="line" smooth="yes"/>
      <point x="94" y="5"/>
      <point x="77" y="5"/>
      <point x="68" y="15" type="curve" smooth="yes"/>
      <point x="59" y="24"/>
      <point x="59" y="41"/>
    </contour>
    <contour>
      <point x="428" y="-2" type="curve" smooth="yes"/>
      <point x="76" y="-2" type="line" smooth="yes"/>
      <point x="63" y="-2"/>
      <point x="51" y="10"/>
      <point x="51" y="23" type="curve" smooth="yes"/>
      <point x="51" y="37"/>
      <point x="63" y="48"/>
      <point x="76" y="48" type="curve" smooth="yes"/>
      <point x="428" y="48" type="line" smooth="yes"/>
      <point x="442" y="48"/>
      <point x="453" y="36"/>
      <point x="453" y="23" type="curve" smooth="yes"/>
      <point x="453" y="9"/>
      <point x="442" y="-2"/>
    </contour>
  </outline>
</glyph>
<glyph name="four" format="1">
  <advance width="531"/>
  <unicode hex="0034"/>
  <outline>
    <contour>
      <point x="392" y="518" type="curve" smooth="yes"/>
      <point x="392" y="23" type="line" smooth="yes"/>
      <point x="392" y="9"/>
      <point x="381" y="-2"/>
      <point x="367" y="-2" type="curve" smooth="yes"/>
      <point x="354" y="-2"/>
      <point x="342" y="10"/>
      <point x="342" y="23" type="curve" smooth="yes"/>
      <point x="342" y="518" type="line" smooth="yes"/>
      <point x="342" y="532"/>
      <point x="354" y="543"/>
      <point x="367" y="543" type="curve" smooth="yes"/>
      <point x="381" y="543"/>
      <point x="392" y="532"/>
    </contour>
    <contour>
      <point x="379" y="493" type="curve" smooth="yes"/>
      <point x="80" y="131" type="line" smooth="yes"/>
      <point x="72" y="121"/>
      <point x="55" y="119"/>
      <point x="45" y="128" type="curve" smooth="yes"/>
      <point x="35" y="136"/>
      <point x="33" y="153"/>
      <point x="42" y="163" type="curve" smooth="yes"/>
      <point x="341" y="525" type="line" smooth="yes"/>
      <point x="349" y="535"/>
      <point x="366" y="537"/>
      <point x="376" y="528" type="curve" smooth="yes"/>
      <point x="386" y="520"/>
      <point x="388" y="503"/>
    </contour>
    <contour>
      <point x="71" y="172" type="curve" smooth="yes"/>
      <point x="475" y="172" type="line" smooth="yes"/>
      <point x="489" y="172"/>
      <point x="500" y="161"/>
      <point x="500" y="147" type="curve" smooth="yes"/>
      <point x="500" y="134"/>
      <point x="489" y="122"/>
      <point x="475" y="122" type="curve" smooth="yes"/>
      <point x="71" y="122" type="line" smooth="yes"/>
      <point x="58" y="122"/>
      <point x="46" y="134"/>
      <point x="46" y="147" type="curve" smooth="yes"/>
      <point x="46" y="161"/>
      <point x="58" y="172"/>
    </contour>
  </outline>
</glyph>
<glyph name="A" format="1">
  <advance width="580"/>
  <unicode hex="0041"/>
  <outline>
    <contour>
      <point x="304" y="507" type="curve" smooth="yes"/>
      <point x="236" y="354"/>
      <point x="141" y="140"/>
      <point x="97" y="15" type="curve" smooth="yes"/>
      <point x="92" y="2"/>
      <point x="77" y="-5"/>
      <point x="65" y="-1" type="curve" smooth="yes"/>
      <point x="52" y="4"/>
      <point x="45" y="19"/>
      <point x="49" y="31" type="curve" smooth="yes"/>
      <point x="95" y="158"/>
      <point x="190" y="374"/>
      <point x="258" y="527" type="curve" smooth="yes"/>
      <point x="264" y="539"/>
      <point x="279" y="545"/>
      <point x="291" y="540" type="curve" smooth="yes"/>
      <point x="303" y="534"/>
      <point x="309" y="519"/>
    </contour>
    <contour>
      <point x="310" y="528" type="curve" smooth="yes"/>
      <point x="382" y="373"/>
      <point x="480" y="155"/>
      <point x="528" y="32" type="curve" smooth="yes"/>
      <point x="533" y="20"/>
      <point x="527" y="5"/>
      <point x="514" y="0" type="curve" smooth="yes"/>
      <point x="502" y="-5"/>
      <point x="487" y="1"/>
      <point x="482" y="14" type="curve" smooth="yes"/>
      <point x="434" y="137"/>
      <point x="336" y="353"/>
      <point x="264" y="506" type="curve" smooth="yes"/>
      <point x="259" y="519"/>
      <point x="264" y="534"/>
      <point x="276" y="540" type="curve" smooth="yes"/>
      <point x="289" y="545"/>
      <point x="304" y="540"/>
    </contour>
    <contour>
      <point x="142" y="193" type="curve" smooth="yes"/>
      <point x="433" y="193" type="line" smooth="yes"/>
      <point x="447" y="193"/>
      <point x="458" y="182"/>
      <point x="458" y="168" type="curve" smooth="yes"/>
      <point x="458" y="155"/>
      <point x="447" y="143"/>
      <point x="433" y="143" type="curve" smooth="yes"/>
      <point x="142" y="143" type="line" smooth="yes"/>
      <point x="129" y="143"/>
      <point x="117" y="155"/>
      <point x="117" y="168" type="curve" smooth="yes"/>
      <point x="117" y="182"/>
      <point x="129" y="193"/>
    </contour>
  </outline>
</glyph>
<glyph name="K" format="1">
  <advance width="557"/>
  <unicode hex="004B"/>
  <outline>
    <contour>
      <point x="148" y="508" type="curve" smooth="yes"/>
      <point x="148" y="23" type="line" smooth="yes"/>
      <point x="148" y="9"/>
      <point x="137" y="-2"/>
      <point x="123" y="-2" type="curve" smooth="yes"/>
      <point x="110" y="-2"/>
      <point x="98" y="10"/>
      <point x="98" y="23" type="curve" smooth="yes"/>
      <point x="98" y="508" type="line" smooth="yes"/>
      <point x="98" y="522"/>
      <point x="110" y="533"/>
      <point x="123" y="533" type="curve" smooth="yes"/>
      <point x="137" y="533"/>
      <point x="148" y="522"/>
    </contour>
    <contour>
      <point x="266" y="317" type="curve" smooth="yes"/>
      <point x="323" y="248"/>
      <point x="443" y="102"/>
      <point x="498" y="39" type="curve" smooth="yes"/>
      <point x="507" y="29"/>
      <point x="506" y="13"/>
      <point x="495" y="4" type="curve" smooth="yes"/>
      <point x="485" y="-5"/>
      <point x="469" y="-4"/>
      <point x="460" y="7" type="curve" smooth="yes"/>
      <point x="405" y="70"/>
      <point x="285" y="216"/>
      <point x="228" y="285" type="curve" smooth="yes"/>
      <point x="219" y="295"/>
      <point x="221" y="312"/>
      <point x="231" y="320" type="curve" smooth="yes"/>
      <point x="241" y="329"/>
      <point x="258" y="327"/>
    </contour>
    <contour>
      <point x="106" y="209" type="curve" smooth="yes"/>
      <point x="154" y="253"/>
      <point x="341" y="421"/>
      <point x="441" y="525" type="curve" smooth="yes"/>
      <point x="450" y="535"/>
      <point x="466" y="535"/>
      <point x="476" y="526" type="curve" smooth="yes"/>
      <point x="486" y="517"/>
      <point x="486" y="501"/>
      <point x="477" y="491" type="curve" smooth="yes"/>
      <point x="377" y="385"/>
      <point x="188" y="217"/>
      <point x="140" y="173" type="curve" smooth="yes"/>
      <point x="130" y="163"/>
      <point x="114" y="164"/>
      <point x="105" y="174" type="curve" smooth="yes"/>
      <point x="95" y="184"/>
      <point x="96" y="200"/>
    </contour>
  </outline>
</glyph>
<glyph name="O" format="1">
  <advance width="640"/>
  <unicode hex="004F"/>
  <outline>
    <contour>
      <point x="322" y="542" type="curve" smooth="yes"/>
      <point x="464" y="542"/>
      <point x="579" y="429"/>
      <point x="579" y="265" type="curve" smooth="yes"/>
      <point x="579" y="109"/>
      <point x="484" y="-11"/>
      <point x="322" y="-11" type="curve" smooth="yes"/>
      <point x="169" y="-11"/>
      <point x="61" y="109"/>
      <point x="61" y="262" type="curve"/>
      <point x="61" y="429"/>
      <point x="167" y="542"/>
    </contour>
    <contour>
      <point x="322" y="492" type="curve" smooth="yes"/>
      <point x="195" y="492"/>
      <point x="111" y="397"/>
      <point x="111" y="262" type="curve" smooth="yes"/>
      <point x="111" y="139"/>
      <point x="197" y="39"/>
      <point x="322" y="39" type="curve" smooth="yes"/>
      <point x="454" y="39"/>
      <point x="529" y="139"/>
      <point x="529" y="265" type="curve" smooth="yes"/>
      <point x="529" y="397"/>
      <point x="438" y="492"/>
    </contour>
  </outline>
</glyph>
<glyph name="u" format="1">
  <advance width="497"/>
  <unicode hex="0075"/>
  <outline>
    <contour>
      <point x="412" y="365" type="curve" smooth="yes"/>
      <point x="412" y="23" type="line" smooth="yes"/>
      <point x="412" y="9"/>
      <point x="401" y="-2"/>
      <point x="387" y="-2" type="curve" smooth="yes"/>
      <point x="374" y="-2"/>
      <point x="362" y="10"/>
      <point x="362" y="23" type="curve" smooth="yes"/>
      <point x="362" y="365" type="line" smooth="yes"/>
      <point x="362" y="379"/>
      <point x="374" y="390"/>
      <point x="387" y="390" type="curve" smooth="yes"/>
      <point x="401" y="390"/>
      <point x="412" y="379"/>
    </contour>
    <contour>
      <point x="125" y="365" type="curve" smooth="yes"/>
      <point x="125" y="165" type="line" smooth="yes"/>
      <point x="125" y="83"/>
      <point x="159" y="48"/>
      <point x="212" y="48" type="curve" smooth="yes"/>
      <point x="268" y="48"/>
      <point x="326" y="94"/>
      <point x="363" y="145" type="curve" smooth="yes"/>
      <point x="371" y="156"/>
      <point x="387" y="158"/>
      <point x="398" y="150" type="curve" smooth="yes"/>
      <point x="409" y="142"/>
      <point x="411" y="126"/>
      <point x="403" y="115" type="curve" smooth="yes"/>
      <point x="356" y="50"/>
      <point x="282" y="-2"/>
      <point x="212" y="-2" type="curve" smooth="yes"/>
      <point x="137" y="-2"/>
      <point x="75" y="37"/>
      <point x="75" y="165" type="curve" smooth="yes"/>
      <point x="75" y="365" type="line" smooth="yes"/>
      <point x="75" y="379"/>
      <point x="87" y="390"/>
      <point x="100" y="390" type="curve" smooth="yes"/>
      <point x="114" y="390"/>
      <point x="125" y="379"/>
    </contour>
  </outline>
</glyph>
<glyph name="v" format="1">
  <advance width="451"/>
  <unicode hex="0076"/>
  <outline>
    <contour>
      <point x="86" y="374" type="curve" smooth="yes"/>
      <point x="145" y="223"/>
      <point x="198" y="117"/>
      <point x="250" y="32" type="curve"/>
      <point x="229" y="44" type="line"/>
      <point x="232" y="44" type="line"/>
      <point x="211" y="32" type="line"/>
      <point x="262" y="117"/>
      <point x="326" y="265"/>
      <point x="366" y="374" type="curve" smooth="yes"/>
      <point x="370" y="386"/>
      <point x="385" y="393"/>
      <point x="398" y="388" type="curve" smooth="yes"/>
      <point x="410" y="384"/>
      <point x="417" y="369"/>
      <point x="412" y="356" type="curve" smooth="yes"/>
      <point x="372" y="245"/>
      <point x="306" y="93"/>
      <point x="253" y="6" type="curve" smooth="yes"/>
      <point x="249" y="-1"/>
      <point x="240" y="-6"/>
      <point x="232" y="-6" type="curve" smooth="yes"/>
      <point x="229" y="-6" type="line" smooth="yes"/>
      <point x="221" y="-6"/>
      <point x="212" y="-1"/>
      <point x="208" y="6" type="curve" smooth="yes"/>
      <point x="154" y="93"/>
      <point x="99" y="201"/>
      <point x="40" y="356" type="curve" smooth="yes"/>
      <point x="35" y="369"/>
      <point x="41" y="383"/>
      <point x="54" y="388" type="curve" smooth="yes"/>
      <point x="67" y="393"/>
      <point x="81" y="387"/>
    </contour>
  </outline>
</glyph>
<glyph name="braceleft" format="1">
  <advance width="412"/>
  <unicode hex="007B"/>
  <outline>
    <contour>
      <point x="310" y="578" type="curve" smooth="yes"/>
      <point x="290" y="578" type="line" smooth="yes"/>
      <point x="215" y="578"/>
      <point x="157" y="543"/>
      <point x="157" y="495" type="curve" smooth="yes"/>
      <point x="157" y="430"/>
      <point x="224" y="395"/>
      <point x="224" y="337" type="curve" smooth="yes"/>
      <point x="224" y="293"/>
      <point x="192" y="255"/>
      <point x="101" y="241" type="curve"/>
      <point x="122" y="266" type="line"/>
      <point x="122" y="260" type="line"/>
      <point x="101" y="285" type="line"/>
      <point x="192" y="271"/>
      <point x="224" y="233"/>
      <point x="224" y="189" type="curve" smooth="yes"/>
      <point x="224" y="131"/>
      <point x="157" y="96"/>
      <point x="157" y="31" type="curve" smooth="yes"/>
      <point x="157" y="-17"/>
      <point x="215" y="-52"/>
      <point x="290" y="-52" type="curve" smooth="yes"/>
      <point x="310" y="-52" type="line" smooth="yes"/>
      <point x="324" y="-52"/>
      <point x="335" y="-64"/>
      <point x="335" y="-77" type="curve" smooth="yes"/>
      <point x="335" y="-91"/>
      <point x="324" y="-102"/>
      <point x="310" y="-102" type="curve" smooth="yes"/>
      <point x="290" y="-102" type="line" smooth="yes"/>
      <point x="169" y="-102"/>
      <point x="107" y="-35"/>
      <point x="107" y="31" type="curve" smooth="yes"/>
      <point x="107" y="96"/>
      <point x="174" y="131"/>
      <point x="174" y="189" type="curve" smooth="yes"/>
      <point x="174" y="217"/>
      <point x="138" y="229"/>
      <point x="93" y="235" type="curve" smooth="yes"/>
      <point x="82" y="237"/>
      <point x="72" y="248"/>
      <point x="72" y="260" type="curve"/>
      <point x="72" y="266" type="line"/>
      <point x="72" y="278"/>
      <point x="82" y="289"/>
      <point x="93" y="291" type="curve" smooth="yes"/>
      <point x="138" y="297"/>
      <point x="174" y="309"/>
      <point x="174" y="337" type="curve" smooth="yes"/>
      <point x="174" y="395"/>
      <point x="107" y="430"/>
      <point x="107" y="495" type="curve" smooth="yes"/>
      <point x="107" y="561"/>
      <point x="169" y="628"/>
      <point x="290" y="628" type="curve" smooth="yes"/>
      <point x="310" y="628" type="line" smooth="yes"/>
      <point x="324" y="628"/>
      <point x="335" y="617"/>
      <point x="335" y="603" type="curve" smooth="yes"/>
      <point x="335" y="590"/>
      <point x="324" y="578"/>
    </contour>
  </outline>
</glyph>
<glyph name="cent" format="1">
  <advance width="433"/>
  <unicode hex="00A2"/>
  <outline>
    <contour>
      <point x="264" y="507" type="curve" smooth="yes"/>
      <point x="264" y="23" type="line" smooth="yes"/>
      <point x="264" y="9"/>
      <point x="253" y="-2"/>
      <point x="239" y="-2" type="curve" smooth="yes"/>
      <point x="226" y="-2"/>
      <point x="214" y="10"/>
      <point x="214" y="23" type="curve" smooth="yes"/>
      <point x="214" y="507" type="line" smooth="yes"/>
      <point x="214" y="521"/>
      <point x="226" y="532"/>
      <point x="239" y="532" type="curve" smooth="yes"/>
      <point x="253" y="532"/>
      <point x="264" y="521"/>
    </contour>
    <contour>
      <point x="342" y="388" type="curve" smooth="yes"/>
      <point x="317" y="395"/>
      <point x="287" y="401"/>
      <point x="260" y="401" type="curve" smooth="yes"/>
      <point x="159" y="401"/>
      <point x="99" y="341"/>
      <point x="99" y="255" type="curve" smooth="yes"/>
      <point x="99" y="180"/>
      <point x="159" y="125"/>
      <point x="259" y="125" type="curve" smooth="yes"/>
      <point x="297" y="125"/>
      <point x="327" y="132"/>
      <point x="353" y="142" type="curve" smooth="yes"/>
      <point x="365" y="146"/>
      <point x="380" y="139"/>
      <point x="385" y="126" type="curve" smooth="yes"/>
      <point x="389" y="114"/>
      <point x="382" y="99"/>
      <point x="369" y="94" type="curve" smooth="yes"/>
      <point x="339" y="84"/>
      <point x="303" y="75"/>
      <point x="259" y="75" type="curve" smooth="yes"/>
      <point x="121" y="75"/>
      <point x="49" y="156"/>
      <point x="49" y="255" type="curve"/>
      <point x="49" y="367"/>
      <point x="125" y="451"/>
      <point x="260" y="451" type="curve" smooth="yes"/>
      <point x="291" y="451"/>
      <point x="327" y="445"/>
      <point x="356" y="436" type="curve" smooth="yes"/>
      <point x="369" y="432"/>
      <point x="377" y="418"/>
      <point x="373" y="405" type="curve" smooth="yes"/>
      <point x="369" y="392"/>
      <point x="355" y="384"/>
    </contour>
  </outline>
</glyph>
<glyph name="sterling" format="1">
  <advance width="456"/>
  <unicode hex="00A3"/>
  <outline>
    <contour>
      <point x="49" y="50" type="curve" smooth="yes"/>
      <point x="126" y="120" type="line" smooth="yes"/>
      <point x="149" y="141"/>
      <point x="168" y="167"/>
      <point x="168" y="190" type="curve" smooth="yes"/>
      <point x="168" y="211"/>
      <point x="155" y="238"/>
      <point x="135" y="261" type="curve" smooth="yes"/>
      <point x="92" y="312"/>
      <point x="67" y="350"/>
      <point x="67" y="404" type="curve" smooth="yes"/>
      <point x="67" y="473"/>
      <point x="118" y="542"/>
      <point x="214" y="542" type="curve" smooth="yes"/>
      <point x="265" y="542"/>
      <point x="312" y="527"/>
      <point x="350" y="502" type="curve" smooth="yes"/>
      <point x="362" y="495"/>
      <point x="365" y="479"/>
      <point x="358" y="468" type="curve" smooth="yes"/>
      <point x="351" y="456"/>
      <point x="335" y="453"/>
      <point x="324" y="460" type="curve" smooth="yes"/>
      <point x="292" y="479"/>
      <point x="255" y="492"/>
      <point x="214" y="492" type="curve" smooth="yes"/>
      <point x="152" y="492"/>
      <point x="117" y="449"/>
      <point x="117" y="404" type="curve" smooth="yes"/>
      <point x="117" y="362"/>
      <point x="140" y="332"/>
      <point x="173" y="293" type="curve" smooth="yes"/>
      <point x="201" y="260"/>
      <point x="218" y="221"/>
      <point x="218" y="190" type="curve" smooth="yes"/>
      <point x="218" y="155"/>
      <point x="195" y="115"/>
      <point x="160" y="84" type="curve" smooth="yes"/>
      <point x="83" y="14" type="line" smooth="yes"/>
      <point x="73" y="4"/>
      <point x="57" y="5"/>
      <point x="48" y="15" type="curve" smooth="yes"/>
      <point x="38" y="25"/>
      <point x="39" y="41"/>
    </contour>
    <contour>
      <point x="370" y="-2" type="curve" smooth="yes"/>
      <point x="56" y="-2" type="line" smooth="yes"/>
      <point x="42" y="-2"/>
      <point x="31" y="10"/>
      <point x="31" y="23" type="curve" smooth="yes"/>
      <point x="31" y="37"/>
      <point x="43" y="48"/>
      <point x="56" y="48" type="curve" smooth="yes"/>
      <point x="370" y="48" type="line" smooth="yes"/>
      <point x="384" y="48"/>
      <point x="395" y="36"/>
      <point x="395" y="23" type="curve" smooth="yes"/>
      <point x="395" y="9"/>
      <point x="384" y="-2"/>
    </contour>
    <contour>
      <point x="62" y="273" type="curve" smooth="yes"/>
      <point x="361" y="273" type="line" smooth="yes"/>
      <point x="375" y="273"/>
      <point x="386" y="262"/>
      <point x="386" y="248" type="curve" smooth="yes"/>
      <point x="386" y="235"/>
      <point x="375" y="223"/>
      <point x="361" y="223" type="curve" smooth="yes"/>
      <point x="62" y="223" type="line" smooth="yes"/>
      <point x="49" y="223"/>
      <point x="37" y="235"/>
      <point x="37" y="248" type="curve" smooth="yes"/>
      <point x="37" y="262"/>
      <point x="49" y="273"/>
    </contour>
  </outline>
</glyph>
<glyph name="brokenbar" format="1">
  <advance width="300"/>
  <unicode hex="00A6"/>
  <outline>
    <contour>
      <point x="175" y="149" type="curve" smooth="yes"/>
      <point x="175" y="-78" type="line" smooth="yes"/>
      <point x="175" y="-92"/>
      <point x="164" y="-103"/>
      <point x="150" y="-103" type="curve" smooth="yes"/>
      <point x="137" y="-103"/>
      <point x="125" y="-92"/>
      <point x="125" y="-78" type="curve" smooth="yes"/>
      <point x="125" y="149" type="line" smooth="yes"/>
      <point x="125" y="163"/>
      <point x="137" y="174"/>
      <point x="150" y="174" type="curve" smooth="yes"/>
      <point x="164" y="174"/>
      <point x="175" y="163"/>
    </contour>
    <contour>
      <point x="175" y="535" type="curve" smooth="yes"/>
      <point x="175" y="308" type="line" smooth="yes"/>
      <point x="175" y="295"/>
      <point x="164" y="283"/>
      <point x="150" y="283" type="curve" smooth="yes"/>
      <point x="137" y="283"/>
      <point x="125" y="295"/>
      <point x="125" y="308" type="curve" smooth="yes"/>
      <point x="125" y="535" type="line" smooth="yes"/>
      <point x="125" y="549"/>
      <point x="137" y="560"/>
      <point x="150" y="560" type="curve" smooth="yes"/>
      <point x="164" y="560"/>
      <point x="175" y="549"/>
    </contour>
  </outline>
</glyph>
<glyph name="plusminus" format="1">
  <advance width="530"/>
  <unicode hex="00B1"/>
  <outline>
    <contour>
      <point x="96" y="353" type="curve" smooth="yes"/>
      <point x="433" y="353" type="line" smooth="yes"/>
      <point x="447" y="353"/>
      <point x="458" y="342"/>
      <point x="458" y="328" type="curve" smooth="yes"/>
      <point x="458" y="315"/>
      <point x="447" y="303"/>
      <point x="433" y="303" type="curve" smooth="yes"/>
      <point x="96" y="303" type="line" smooth="yes"/>
      <point x="83" y="303"/>
      <point x="71" y="315"/>
      <point x="71" y="328" type="curve" smooth="yes"/>
      <point x="71" y="342"/>
      <point x="83" y="353"/>
    </contour>
    <contour>
      <point x="240" y="209" type="curve" smooth="yes"/>
      <point x="240" y="447" type="line" smooth="yes"/>
      <point x="240" y="461"/>
      <point x="252" y="472"/>
      <point x="265" y="472" type="curve" smooth="yes"/>
      <point x="279" y="472"/>
      <point x="290" y="461"/>
      <point x="290" y="447" type="curve" smooth="yes"/>
      <point x="290" y="209" type="line" smooth="yes"/>
      <point x="290" y="196"/>
      <point x="279" y="184"/>
      <point x="265" y="184" type="curve" smooth="yes"/>
      <point x="252" y="184"/>
      <point x="240" y="196"/>
    </contour>
    <contour>
      <point x="96" y="107" type="curve" smooth="yes"/>
      <point x="433" y="107" type="line" smooth="yes"/>
      <point x="447" y="107"/>
      <point x="458" y="96"/>
      <point x="458" y="82" type="curve" smooth="yes"/>
      <point x="458" y="69"/>
      <point x="447" y="57"/>
      <point x="433" y="57" type="curve" smooth="yes"/>
      <point x="96" y="57" type="line" smooth="yes"/>
      <point x="83" y="57"/>
      <point x="71" y="69"/>
      <point x="71" y="82" type="curve" smooth="yes"/>
      <point x="71" y="96"/>
      <point x="83" y="107"/>
    </contour>
  </outline>
</glyph>
<glyph name="paragraph" format="1">
  <advance width="556"/>
  <unicode hex="00B6"/>
  <outline>
    <contour>
      <point x="408" y="23" type="curve" smooth="yes"/>
      <point x="408" y="508" type="line"/>
      <point x="433" y="483" type="line"/>
      <point x="245" y="483" type="line" smooth="yes"/>
      <point x="160" y="483"/>
      <point x="102" y="431"/>
      <point x="102" y="354" type="curve" smooth="yes"/>
      <point x="102" y="282"/>
      <point x="150" y="224"/>
      <point x="245" y="224" type="curve" smooth="yes"/>
      <point x="301" y="224" type="line" smooth="yes"/>
      <point x="315" y="224"/>
      <point x="326" y="213"/>
      <point x="326" y="199" type="curve" smooth="yes"/>
      <point x="326" y="186"/>
      <point x="315" y="174"/>
      <point x="301" y="174" type="curve" smooth="yes"/>
      <point x="245" y="174" type="line" smooth="yes"/>
      <point x="114" y="174"/>
      <point x="52" y="256"/>
      <point x="52" y="354" type="curve"/>
      <point x="52" y="457"/>
      <point x="128" y="533"/>
      <point x="245" y="533" type="curve" smooth="yes"/>
      <point x="433" y="533" type="line" smooth="yes"/>
      <point x="447" y="533"/>
      <point x="458" y="522"/>
      <point x="458" y="508" type="curve" smooth="yes"/>
      <point x="458" y="23" type="line" smooth="yes"/>
      <point x="458" y="9"/>
      <point x="447" y="-2"/>
      <point x="433" y="-2" type="curve" smooth="yes"/>
      <point x="420" y="-2"/>
      <point x="408" y="10"/>
    </contour>
    <contour>
      <point x="276" y="23" type="curve" smooth="yes"/>
      <point x="276" y="506" type="line" smooth="yes"/>
      <point x="276" y="520"/>
      <point x="288" y="531"/>
      <point x="301" y="531" type="curve" smooth="yes"/>
      <point x="315" y="531"/>
      <point x="326" y="520"/>
      <point x="326" y="506" type="curve" smooth="yes"/>
      <point x="326" y="23" type="line" smooth="yes"/>
      <point x="326" y="9"/>
      <point x="315" y="-2"/>
      <point x="301" y="-2" type="curve" smooth="yes"/>
      <point x="288" y="-2"/>
      <point x="276" y="10"/>
    </contour>
  </outline>
</glyph>
<glyph name="ordmasculine" format="1">
  <advance width="438"/>
  <unicode hex="00BA"/>
  <outline>
    <contour>
      <point x="219" y="529" type="curve" smooth="yes"/>
      <point x="301" y="529"/>
      <point x="354" y="466"/>
      <point x="354" y="391" type="curve" smooth="yes"/>
      <point x="354" y="315"/>
      <point x="302" y="257"/>
      <point x="219" y="257" type="curve" smooth="yes"/>
      <point x="136" y="257"/>
      <point x="83" y="315"/>
      <point x="83" y="391" type="curve" smooth="yes"/>
      <point x="83" y="466"/>
      <point x="135" y="529"/>
    </contour>
    <contour>
      <point x="219" y="485" type="curve" smooth="yes"/>
      <point x="161" y="485"/>
      <point x="127" y="442"/>
      <point x="127" y="391" type="curve" smooth="yes"/>
      <point x="127" y="339"/>
      <point x="164" y="301"/>
      <point x="219" y="301" type="curve" smooth="yes"/>
      <point x="274" y="301"/>
      <point x="310" y="339"/>
      <point x="310" y="391" type="curve" smooth="yes"/>
      <point x="310" y="442"/>
      <point x="275" y="485"/>
    </contour>
    <contour>
      <point x="98" y="186" type="curve" smooth="yes"/>
      <point x="347" y="186" type="line" smooth="yes"/>
      <point x="359" y="186"/>
      <point x="369" y="176"/>
      <point x="369" y="164" type="curve" smooth="yes"/>
      <point x="369" y="152"/>
      <point x="359" y="142"/>
      <point x="347" y="142" type="curve" smooth="yes"/>
      <point x="98" y="142" type="line" smooth="yes"/>
      <point x="86" y="142"/>
      <point x="76" y="152"/>
      <point x="76" y="164" type="curve" smooth="yes"/>
      <point x="76" y="176"/>
      <point x="86" y="186"/>
    </contour>
  </outline>
</glyph>
<glyph name="germandbls" format="1">
  <advance width="509"/>
  <unicode hex="00DF"/>
  <outline>
    <contour>
      <point x="246" y="315" type="curve" smooth="yes"/>
      <point x="322" y="366"/>
      <point x="339" y="395"/>
      <point x="339" y="444" type="curve" smooth="yes"/>
      <point x="339" y="491"/>
      <point x="306" y="536"/>
      <point x="237" y="535" type="curve" smooth="yes"/>
      <point x="172" y="534"/>
      <point x="141" y="491"/>
      <point x="141" y="434" type="curve" smooth="yes"/>
      <point x="141" y="23" type="line" smooth="yes"/>
      <point x="141" y="9"/>
      <point x="130" y="-2"/>
      <point x="116" y="-2" type="curve" smooth="yes"/>
      <point x="103" y="-2"/>
      <point x="91" y="10"/>
      <point x="91" y="23" type="curve" smooth="yes"/>
      <point x="91" y="434" type="line" smooth="yes"/>
      <point x="91" y="519"/>
      <point x="138" y="584"/>
      <point x="237" y="585" type="curve" smooth="yes"/>
      <point x="342" y="586"/>
      <point x="389" y="515"/>
      <point x="389" y="444" type="curve" smooth="yes"/>
      <point x="389" y="381"/>
      <point x="374" y="340"/>
      <point x="274" y="273" type="curve" smooth="yes"/>
      <point x="263" y="266"/>
      <point x="247" y="269"/>
      <point x="239" y="280" type="curve" smooth="yes"/>
      <point x="232" y="291"/>
      <point x="235" y="307"/>
    </contour>
    <contour>
      <point x="264" y="53" type="curve" smooth="yes"/>
      <point x="277" y="48"/>
      <point x="299" y="44"/>
      <point x="322" y="44" type="curve" smooth="yes"/>
      <point x="379" y="44"/>
      <point x="413" y="75"/>
      <point x="413" y="123" type="curve" smooth="yes"/>
      <point x="413" y="165"/>
      <point x="386" y="201"/>
      <point x="332" y="228" type="curve" smooth="yes"/>
      <point x="249" y="267" type="line" smooth="yes"/>
      <point x="237" y="273"/>
      <point x="232" y="289"/>
      <point x="237" y="301" type="curve" smooth="yes"/>
      <point x="243" y="313"/>
      <point x="259" y="318"/>
      <point x="271" y="313" type="curve" smooth="yes"/>
      <point x="354" y="272" type="line" smooth="yes"/>
      <point x="432" y="235"/>
      <point x="463" y="181"/>
      <point x="463" y="123" type="curve" smooth="yes"/>
      <point x="463" y="49"/>
      <point x="415" y="-6"/>
      <point x="322" y="-6" type="curve" smooth="yes"/>
      <point x="291" y="-6"/>
      <point x="263" y="0"/>
      <point x="246" y="7" type="curve" smooth="yes"/>
      <point x="233" y="12"/>
      <point x="227" y="27"/>
      <point x="232" y="39" type="curve" smooth="yes"/>
      <point x="237" y="52"/>
      <point x="252" y="58"/>
    </contour>
  </outline>
</glyph>
<glyph name="tcaron" format="1">
  <advance width="354"/>
  <unicode hex="0165"/>
  <outline>
    <contour>
      <point x="325" y="624" type="curve" smooth="yes"/>
      <point x="303" y="497" type="line" smooth="yes"/>
      <point x="300" y="483"/>
      <point x="287" y="474"/>
      <point x="274" y="476" type="curve" smooth="yes"/>
      <point x="260" y="479"/>
      <point x="251" y="492"/>
      <point x="253" y="505" type="curve" smooth="yes"/>
      <point x="275" y="632" type="line" smooth="yes"/>
      <point x="278" y="646"/>
      <point x="291" y="655"/>
      <point x="304" y="653" type="curve" smooth="yes"/>
      <point x="318" y="650"/>
      <point x="327" y="637"/>
    </contour>
    <component base="t"/>
    <component base="t"/>
  </outline>
</glyph>
<glyph name="florin" format="1">
  <advance width="332"/>
  <unicode hex="0192"/>
  <outline>
    <contour>
      <point x="315" y="535" type="curve" smooth="yes"/>
      <point x="238" y="530"/>
      <point x="208" y="492"/>
      <point x="202" y="435" type="curve" smooth="yes"/>
      <point x="147" y="-134" type="line" smooth="yes"/>
      <point x="146" y="-148"/>
      <point x="133" y="-158"/>
      <point x="120" y="-157" type="curve" smooth="yes"/>
      <point x="106" y="-156"/>
      <point x="96" y="-143"/>
      <point x="97" y="-130" type="curve" smooth="yes"/>
      <point x="152" y="441" type="line" smooth="yes"/>
      <point x="160" y="520"/>
      <point x="200" y="578"/>
      <point x="311" y="585" type="curve" smooth="yes"/>
      <point x="325" y="586"/>
      <point x="337" y="575"/>
      <point x="338" y="562" type="curve" smooth="yes"/>
      <point x="339" y="548"/>
      <point x="328" y="536"/>
    </contour>
    <contour>
      <point x="69" y="390" type="curve" smooth="yes"/>
      <point x="295" y="390" type="line" smooth="yes"/>
      <point x="309" y="390"/>
      <point x="320" y="379"/>
      <point x="320" y="365" type="curve" smooth="yes"/>
      <point x="320" y="352"/>
      <point x="309" y="340"/>
      <point x="295" y="340" type="curve" smooth="yes"/>
      <point x="69" y="340" type="line" smooth="yes"/>
      <point x="56" y="340"/>
      <point x="44" y="352"/>
      <point x="44" y="365" type="curve" smooth="yes"/>
      <point x="44" y="379"/>
      <point x="56" y="390"/>
    </contour>
  </outline>
</glyph>
<glyph name="ring" format="1">
  <advance width="490"/>
  <unicode hex="02DA"/>
  <outline>
    <contour>
      <point x="352" y="546" type="curve" smooth="yes"/>
      <point x="352" y="498"/>
      <point x="315" y="451"/>
      <point x="250" y="451" type="curve" smooth="yes"/>
      <point x="188" y="451"/>
      <point x="150" y="500"/>
      <point x="150" y="546" type="curve" smooth="yes"/>
      <point x="150" y="592"/>
      <point x="188" y="641"/>
      <point x="250" y="641" type="curve" smooth="yes"/>
      <point x="315" y="641"/>
      <point x="352" y="594"/>
    </contour>
    <contour>
      <point x="308" y="546" type="curve" smooth="yes"/>
      <point x="308" y="574"/>
      <point x="285" y="597"/>
      <point x="250" y="597" type="curve" smooth="yes"/>
      <point x="216" y="597"/>
      <point x="194" y="572"/>
      <point x="194" y="546" type="curve" smooth="yes"/>
      <point x="194" y="520"/>
      <point x="216" y="495"/>
      <point x="250" y="495" type="curve" smooth="yes"/>
      <point x="285" y="495"/>
      <point x="308" y="518"/>
    </contour>
  </outline>
</glyph>
<glyph name="tilde" format="1">
  <advance width="490"/>
  <unicode hex="02DC"/>
  <outline>
    <contour>
      <point x="117" y="532" type="curve" smooth="yes"/>
      <point x="142" y="569"/>
      <point x="170" y="590"/>
      <point x="195" y="590" type="curve" smooth="yes"/>
      <point x="217" y="590"/>
      <point x="233" y="580"/>
      <point x="260" y="558" type="curve" smooth="yes"/>
      <point x="275" y="547"/>
      <point x="286" y="538"/>
      <point x="299" y="538" type="curve" smooth="yes"/>
      <point x="315" y="538"/>
      <point x="324" y="556"/>
      <point x="338" y="576" type="curve" smooth="yes"/>
      <point x="344" y="586"/>
      <point x="358" y="589"/>
      <point x="368" y="582" type="curve" smooth="yes"/>
      <point x="378" y="576"/>
      <point x="381" y="562"/>
      <point x="374" y="552" type="curve" smooth="yes"/>
      <point x="348" y="512"/>
      <point x="325" y="494"/>
      <point x="299" y="494" type="curve" smooth="yes"/>
      <point x="278" y="494"/>
      <point x="259" y="505"/>
      <point x="234" y="524" type="curve" smooth="yes"/>
      <point x="217" y="536"/>
      <point x="209" y="546"/>
      <point x="195" y="546" type="curve" smooth="yes"/>
      <point x="180" y="546"/>
      <point x="166" y="527"/>
      <point x="153" y="508" type="curve" smooth="yes"/>
      <point x="147" y="498"/>
      <point x="132" y="495"/>
      <point x="123" y="502" type="curve" smooth="yes"/>
      <point x="113" y="508"/>
      <point x="110" y="523"/>
    </contour>
  </outline>
</glyph>
<glyph name="knAnusvara" format="1">
  <advance width="540"/>
  <unicode hex="0C82"/>
  <outline>
    <contour>
      <point x="60" y="220" type="curve" smooth="yes"/>
      <point x="60" y="337"/>
      <point x="157" y="442"/>
      <point x="281" y="442" type="curve" smooth="yes"/>
      <point x="404" y="442"/>
      <point x="500" y="335"/>
      <point x="500" y="220" type="curve" smooth="yes"/>
      <point x="500" y="103"/>
      <point x="406" y="-4"/>
      <point x="281" y="-4" type="curve" smooth="yes"/>
      <point x="155" y="-4"/>
      <point x="60" y="102"/>
    </contour>
    <contour>
      <point x="106" y="220" type="curve" smooth="yes"/>
      <point x="106" y="126"/>
      <point x="181" y="42"/>
      <point x="281" y="42" type="curve" smooth="yes"/>
      <point x="380" y="42"/>
      <point x="454" y="127"/>
      <point x="454" y="220" type="curve" smooth="yes"/>
      <point x="454" y="311"/>
      <point x="378" y="396"/>
      <point x="281" y="396" type="curve" smooth="yes"/>
      <point x="183" y="396"/>
      <point x="106" y="313"/>
    </contour>
  </outline>
</glyph>
<glyph name="knAI" format="1">
  <advance width="742"/>
  <unicode hex="0C90"/>
  <outline>
    <contour>
      <point x="192" y="193" type="curve" smooth="yes"/>
      <point x="145" y="186"/>
      <point x="116" y="156"/>
      <point x="116" y="118" type="curve" smooth="yes"/>
      <point x="116" y="76"/>
      <point x="152" y="46"/>
      <point x="204" y="46" type="curve" smooth="yes"/>
      <point x="271" y="46"/>
      <point x="309" y="75"/>
      <point x="341" y="135" type="curve" smooth="yes"/>
      <point x="344" y="142"/>
      <point x="353" y="147"/>
      <point x="361" y="147" type="curve" smooth="yes"/>
      <point x="366" y="147" type="line" smooth="yes"/>
      <point x="373" y="147"/>
      <point x="382" y="142"/>
      <point x="386" y="136" type="curve" smooth="yes"/>
      <point x="421" y="74"/>
      <point x="460" y="46"/>
      <point x="514" y="46" type="curve" smooth="yes"/>
      <point x="580" y="46"/>
      <point x="629" y="99"/>
      <point x="629" y="222" type="curve" smooth="yes"/>
      <point x="629" y="353"/>
      <point x="567" y="410"/>
      <point x="506" y="410" type="curve" smooth="yes"/>
      <point x="459" y="410"/>
      <point x="428" y="381"/>
      <point x="389" y="318" type="curve" smooth="yes"/>
      <point x="385" y="312"/>
      <point x="376" y="307"/>
      <point x="369" y="307" type="curve" smooth="yes"/>
      <point x="364" y="307" type="line" smooth="yes"/>
      <point x="357" y="307"/>
      <point x="348" y="312"/>
      <point x="344" y="318" type="curve" smooth="yes"/>
      <point x="307" y="381"/>
      <point x="276" y="411"/>
      <point x="225" y="411" type="curve" smooth="yes"/>
      <point x="178" y="411"/>
      <point x="144" y="379"/>
      <point x="128" y="326" type="curve" smooth="yes"/>
      <point x="125" y="314"/>
      <point x="112" y="306"/>
      <point x="100" y="310" type="curve" smooth="yes"/>
      <point x="88" y="313"/>
      <point x="80" y="326"/>
      <point x="84" y="338" type="curve" smooth="yes"/>
      <point x="106" y="417"/>
      <point x="160" y="457"/>
      <point x="225" y="457" type="curve" smooth="yes"/>
      <point x="290" y="457"/>
      <point x="333" y="425"/>
      <point x="384" y="342" type="curve"/>
      <point x="364" y="353" type="line"/>
      <point x="369" y="353" type="line"/>
      <point x="349" y="342" type="line"/>
      <point x="402" y="427"/>
      <point x="447" y="456"/>
      <point x="506" y="456" type="curve" smooth="yes"/>
      <point x="583" y="456"/>
      <point x="675" y="403"/>
      <point x="675" y="222" type="curve" smooth="yes"/>
      <point x="675" y="49"/>
      <point x="598" y="0"/>
      <point x="514" y="0" type="curve" smooth="yes"/>
      <point x="444" y="0"/>
      <point x="393" y="32"/>
      <point x="346" y="112" type="curve"/>
      <point x="366" y="101" type="line"/>
      <point x="361" y="101" type="line"/>
      <point x="381" y="113" type="line"/>
      <point x="339" y="35"/>
      <point x="289" y="0"/>
      <point x="204" y="0" type="curve" smooth="yes"/>
      <point x="120" y="0"/>
      <point x="70" y="54"/>
      <point x="70" y="118" type="curve" smooth="yes"/>
      <point x="70" y="176"/>
      <point x="109" y="228"/>
      <point x="186" y="239" type="curve" smooth="yes"/>
      <point x="198" y="241"/>
      <point x="210" y="232"/>
      <point x="212" y="219" type="curve" smooth="yes"/>
      <point x="214" y="207"/>
      <point x="205" y="195"/>
    </contour>
  </outline>
</glyph>
<glyph name="knKA" format="1">
  <advance width="703"/>
  <unicode hex="0C95"/>
  <outline>
    <contour>
      <point x="98" y="456" type="curve" smooth="yes"/>
      <point x="480" y="456" type="line" smooth="yes"/>
      <point x="543" y="456"/>
      <point x="581" y="478"/>
      <point x="608" y="523" type="curve" smooth="yes"/>
      <point x="615" y="534"/>
      <point x="629" y="537"/>
      <point x="640" y="531" type="curve" smooth="yes"/>
      <point x="651" y="524"/>
      <point x="654" y="510"/>
      <point x="648" y="499" type="curve" smooth="yes"/>
      <point x="611" y="440"/>
      <point x="563" y="410"/>
      <point x="480" y="410" type="curve" smooth="yes"/>
      <point x="98" y="410" type="line" smooth="yes"/>
      <point x="86" y="410"/>
      <point x="75" y="421"/>
      <point x="75" y="433" type="curve" smooth="yes"/>
      <point x="75" y="445"/>
      <point x="86" y="456"/>
    </contour>
    <contour>
      <point x="94" y="301" type="curve" smooth="yes"/>
      <point x="607" y="301" type="line" smooth="yes"/>
      <point x="619" y="301"/>
      <point x="630" y="290"/>
      <point x="630" y="278" type="curve" smooth="yes"/>
      <point x="630" y="266"/>
      <point x="619" y="255"/>
      <point x="607" y="255" type="curve" smooth="yes"/>
      <point x="94" y="255" type="line" smooth="yes"/>
      <point x="82" y="255"/>
      <point x="71" y="266"/>
      <point x="71" y="278" type="curve" smooth="yes"/>
      <point x="71" y="290"/>
      <point x="82" y="301"/>
    </contour>
    <contour>
      <point x="329" y="281" type="curve" smooth="yes"/>
      <point x="329" y="405" type="line" smooth="yes"/>
      <point x="329" y="417"/>
      <point x="340" y="428"/>
      <point x="352" y="428" type="curve" smooth="yes"/>
      <point x="364" y="428"/>
      <point x="375" y="417"/>
      <point x="375" y="405" type="curve" smooth="yes"/>
      <point x="375" y="281" type="line" smooth="yes"/>
      <point x="375" y="269"/>
      <point x="364" y="258"/>
      <point x="352" y="258" type="curve" smooth="yes"/>
      <point x="340" y="258"/>
      <point x="329" y="269"/>
    </contour>
    <contour>
      <point x="313" y="253" type="curve" smooth="yes"/>
      <point x="250" y="243"/>
      <point x="208" y="199"/>
      <point x="208" y="147" type="curve" smooth="yes"/>
      <point x="208" y="92"/>
      <point x="249" y="38"/>
      <point x="351" y="38" type="curve" smooth="yes"/>
      <point x="455" y="38"/>
      <point x="496" y="93"/>
      <point x="496" y="147" type="curve" smooth="yes"/>
      <point x="496" y="199"/>
      <point x="453" y="244"/>
      <point x="391" y="253" type="curve" smooth="yes"/>
      <point x="378" y="255"/>
      <point x="369" y="267"/>
      <point x="371" y="279" type="curve" smooth="yes"/>
      <point x="373" y="292"/>
      <point x="385" y="301"/>
      <point x="397" y="299" type="curve" smooth="yes"/>
      <point x="487" y="286"/>
      <point x="542" y="219"/>
      <point x="542" y="147" type="curve" smooth="yes"/>
      <point x="542" y="75"/>
      <point x="499" y="-8"/>
      <point x="351" y="-8" type="curve" smooth="yes"/>
      <point x="207" y="-8"/>
      <point x="162" y="74"/>
      <point x="162" y="147" type="curve" smooth="yes"/>
      <point x="162" y="219"/>
      <point x="216" y="285"/>
      <point x="305" y="299" type="curve" smooth="yes"/>
      <point x="318" y="301"/>
      <point x="330" y="292"/>
      <point x="332" y="280" type="curve" smooth="yes"/>
      <point x="334" y="267"/>
      <point x="325" y="255"/>
    </contour>
  </outline>
</glyph>
<glyph name="knCA" format="1">
  <advance width="795"/>
  <unicode hex="0C9A"/>
  <outline>
    <contour>
      <point x="438" y="309" type="curve" smooth="yes"/>
      <point x="715" y="309" type="line" smooth="yes"/>
      <point x="727" y="309"/>
      <point x="738" y="298"/>
      <point x="738" y="286" type="curve" smooth="yes"/>
      <point x="738" y="274"/>
      <point x="727" y="263"/>
      <point x="715" y="263" type="curve" smooth="yes"/>
      <point x="438" y="263" type="line" smooth="yes"/>
      <point x="426" y="263"/>
      <point x="415" y="274"/>
      <point x="415" y="286" type="curve" smooth="yes"/>
      <point x="415" y="298"/>
      <point x="426" y="309"/>
    </contour>
    <contour>
      <point x="440" y="456" type="curve" smooth="yes"/>
      <point x="582" y="456" type="line" smooth="yes"/>
      <point x="645" y="456"/>
      <point x="683" y="478"/>
      <point x="710" y="523" type="curve" smooth="yes"/>
      <point x="717" y="534"/>
      <point x="731" y="537"/>
      <point x="742" y="531" type="curve" smooth="yes"/>
      <point x="753" y="524"/>
      <point x="756" y="510"/>
      <point x="750" y="499" type="curve" smooth="yes"/>
      <point x="713" y="440"/>
      <point x="665" y="410"/>
      <point x="582" y="410" type="curve" smooth="yes"/>
      <point x="440" y="410" type="line" smooth="yes"/>
      <point x="428" y="410"/>
      <point x="417" y="421"/>
      <point x="417" y="433" type="curve" smooth="yes"/>
      <point x="417" y="445"/>
      <point x="428" y="456"/>
    </contour>
    <contour>
      <point x="567" y="288" type="curve" smooth="yes"/>
      <point x="567" y="425" type="line" smooth="yes"/>
      <point x="567" y="437"/>
      <point x="578" y="448"/>
      <point x="590" y="448" type="curve" smooth="yes"/>
      <point x="602" y="448"/>
      <point x="613" y="437"/>
      <point x="613" y="425" type="curve" smooth="yes"/>
      <point x="613" y="288" type="line" smooth="yes"/>
      <point x="613" y="276"/>
      <point x="602" y="265"/>
      <point x="590" y="265" type="curve" smooth="yes"/>
      <point x="578" y="265"/>
      <point x="567" y="276"/>
    </contour>
    <contour>
      <point x="75" y="417" type="curve" smooth="yes"/>
      <point x="105" y="451"/>
      <point x="140" y="471"/>
      <point x="183" y="471" type="curve" smooth="yes"/>
      <point x="251" y="471"/>
      <point x="291" y="426"/>
      <point x="291" y="371" type="curve" smooth="yes"/>
      <point x="291" y="327"/>
      <point x="269" y="288"/>
      <point x="203" y="235" type="curve" smooth="yes"/>
      <point x="162" y="202"/>
      <point x="133" y="167"/>
      <point x="133" y="125" type="curve" smooth="yes"/>
      <point x="133" y="81"/>
      <point x="165" y="46"/>
      <point x="222" y="46" type="curve" smooth="yes"/>
      <point x="281" y="46"/>
      <point x="320" y="73"/>
      <point x="359" y="136" type="curve" smooth="yes"/>
      <point x="363" y="142"/>
      <point x="372" y="147"/>
      <point x="379" y="147" type="curve" smooth="yes"/>
      <point x="384" y="147" type="line" smooth="yes"/>
      <point x="391" y="147"/>
      <point x="400" y="142"/>
      <point x="403" y="136" type="curve" smooth="yes"/>
      <point x="440" y="79"/>
      <point x="480" y="46"/>
      <point x="545" y="46" type="curve" smooth="yes"/>
      <point x="602" y="46"/>
      <point x="637" y="87"/>
      <point x="637" y="133" type="curve" smooth="yes"/>
      <point x="637" y="177"/>
      <point x="615" y="223"/>
      <point x="563" y="265" type="curve" smooth="yes"/>
      <point x="553" y="273"/>
      <point x="551" y="288"/>
      <point x="559" y="297" type="curve" smooth="yes"/>
      <point x="567" y="307"/>
      <point x="582" y="309"/>
      <point x="591" y="301" type="curve" smooth="yes"/>
      <point x="659" y="247"/>
      <point x="683" y="189"/>
      <point x="683" y="133" type="curve" smooth="yes"/>
      <point x="683" y="63"/>
      <point x="632" y="0"/>
      <point x="545" y="0" type="curve" smooth="yes"/>
      <point x="464" y="0"/>
      <point x="412" y="39"/>
      <point x="365" y="112" type="curve"/>
      <point x="384" y="101" type="line"/>
      <point x="379" y="101" type="line"/>
      <point x="399" y="112" type="line"/>
      <point x="348" y="31"/>
      <point x="297" y="0"/>
      <point x="222" y="0" type="curve" smooth="yes"/>
      <point x="133" y="0"/>
      <point x="87" y="59"/>
      <point x="87" y="125" type="curve" smooth="yes"/>
      <point x="87" y="179"/>
      <point x="120" y="226"/>
      <point x="175" y="271" type="curve" smooth="yes"/>
      <point x="223" y="310"/>
      <point x="245" y="337"/>
      <point x="245" y="371" type="curve" smooth="yes"/>
      <point x="245" y="402"/>
      <point x="219" y="425"/>
      <point x="183" y="425" type="curve" smooth="yes"/>
      <point x="154" y="425"/>
      <point x="129" y="409"/>
      <point x="109" y="387" type="curve" smooth="yes"/>
      <point x="101" y="377"/>
      <point x="86" y="377"/>
      <point x="77" y="385" type="curve" smooth="yes"/>
      <point x="67" y="393"/>
      <point x="67" y="408"/>
    </contour>
  </outline>
</glyph>
<glyph name="knTTHA" format="1">
  <advance width="684"/>
  <unicode hex="0CA0"/>
  <outline>
    <contour>
      <point x="100" y="220" type="curve" smooth="yes"/>
      <point x="100" y="339"/>
      <point x="202" y="456"/>
      <point x="348" y="456" type="curve" smooth="yes"/>
      <point x="496" y="456"/>
      <point x="593" y="337"/>
      <point x="593" y="220" type="curve" smooth="yes"/>
      <point x="593" y="94"/>
      <point x="501" y="-10"/>
      <point x="347" y="-10" type="curve" smooth="yes"/>
      <point x="195" y="-10"/>
      <point x="100" y="92"/>
    </contour>
    <contour>
      <point x="345" y="279" type="curve" smooth="yes"/>
      <point x="376" y="279"/>
      <point x="397" y="251"/>
      <point x="397" y="228" type="curve" smooth="yes"/>
      <point x="397" y="201"/>
      <point x="376" y="177"/>
      <point x="345" y="177" type="curve" smooth="yes"/>
      <point x="318" y="177"/>
      <point x="294" y="200"/>
      <point x="294" y="229" type="curve" smooth="yes"/>
      <point x="294" y="251"/>
      <point x="317" y="279"/>
    </contour>
    <contour>
      <point x="103" y="456" type="curve" smooth="yes"/>
      <point x="473" y="456" type="line" smooth="yes"/>
      <point x="536" y="456"/>
      <point x="573" y="478"/>
      <point x="600" y="523" type="curve" smooth="yes"/>
      <point x="607" y="534"/>
      <point x="621" y="537"/>
      <point x="632" y="531" type="curve" smooth="yes"/>
      <point x="643" y="524"/>
      <point x="646" y="510"/>
      <point x="640" y="499" type="curve" smooth="yes"/>
      <point x="603" y="440"/>
      <point x="556" y="410"/>
      <point x="473" y="410" type="curve" smooth="yes"/>
      <point x="103" y="410" type="line" smooth="yes"/>
      <point x="91" y="410"/>
      <point x="80" y="421"/>
      <point x="80" y="433" type="curve" smooth="yes"/>
      <point x="80" y="445"/>
      <point x="91" y="456"/>
    </contour>
    <contour>
      <point x="146" y="220" type="curve" smooth="yes"/>
      <point x="146" y="116"/>
      <point x="225" y="36"/>
      <point x="347" y="36" type="curve" smooth="yes"/>
      <point x="471" y="36"/>
      <point x="547" y="118"/>
      <point x="547" y="220" type="curve" smooth="yes"/>
      <point x="547" y="315"/>
      <point x="468" y="410"/>
      <point x="348" y="410" type="curve" smooth="yes"/>
      <point x="230" y="410"/>
      <point x="146" y="317"/>
    </contour>
    <contour>
      <point x="345" y="233" type="curve" smooth="yes"/>
      <point x="343" y="233"/>
      <point x="340" y="231"/>
      <point x="340" y="229" type="curve" smooth="yes"/>
      <point x="340" y="226"/>
      <point x="342" y="223"/>
      <point x="345" y="223" type="curve" smooth="yes"/>
      <point x="348" y="223"/>
      <point x="351" y="225"/>
      <point x="351" y="228" type="curve" smooth="yes"/>
      <point x="351" y="231"/>
      <point x="348" y="233"/>
    </contour>
  </outline>
</glyph>
<glyph name="knTA" format="1">
  <advance width="658"/>
  <unicode hex="0CA4"/>
  <outline>
    <contour>
      <point x="100" y="456" type="curve" smooth="yes"/>
      <point x="438" y="456" type="line" smooth="yes"/>
      <point x="501" y="456"/>
      <point x="539" y="478"/>
      <point x="566" y="523" type="curve" smooth="yes"/>
      <point x="573" y="534"/>
      <point x="587" y="537"/>
      <point x="598" y="531" type="curve" smooth="yes"/>
      <point x="609" y="524"/>
      <point x="612" y="510"/>
      <point x="606" y="499" type="curve" smooth="yes"/>
      <point x="569" y="440"/>
      <point x="521" y="410"/>
      <point x="438" y="410" type="curve" smooth="yes"/>
      <point x="100" y="410" type="line" smooth="yes"/>
      <point x="88" y="410"/>
      <point x="77" y="421"/>
      <point x="77" y="433" type="curve" smooth="yes"/>
      <point x="77" y="445"/>
      <point x="88" y="456"/>
    </contour>
    <contour>
      <point x="136" y="78" type="curve" smooth="yes"/>
      <point x="183" y="55"/>
      <point x="256" y="37"/>
      <point x="342" y="37" type="curve" smooth="yes"/>
      <point x="462" y="37"/>
      <point x="539" y="89"/>
      <point x="539" y="163" type="curve" smooth="yes"/>
      <point x="539" y="237"/>
      <point x="465" y="293"/>
      <point x="337" y="293" type="curve" smooth="yes"/>
      <point x="277" y="293"/>
      <point x="233" y="272"/>
      <point x="233" y="241" type="curve" smooth="yes"/>
      <point x="233" y="212"/>
      <point x="264" y="194"/>
      <point x="311" y="193" type="curve" smooth="yes"/>
      <point x="382" y="192"/>
      <point x="428" y="236"/>
      <point x="428" y="289" type="curve" smooth="yes"/>
      <point x="428" y="331"/>
      <point x="423" y="377"/>
      <point x="400" y="423" type="curve" smooth="yes"/>
      <point x="395" y="434"/>
      <point x="400" y="448"/>
      <point x="411" y="454" type="curve" smooth="yes"/>
      <point x="422" y="459"/>
      <point x="436" y="454"/>
      <point x="442" y="443" type="curve" smooth="yes"/>
      <point x="467" y="391"/>
      <point x="474" y="337"/>
      <point x="474" y="289" type="curve" smooth="yes"/>
      <point x="474" y="216"/>
      <point x="416" y="146"/>
      <point x="311" y="147" type="curve" smooth="yes"/>
      <point x="218" y="148"/>
      <point x="187" y="196"/>
      <point x="187" y="241" type="curve" smooth="yes"/>
      <point x="187" y="286"/>
      <point x="225" y="339"/>
      <point x="337" y="339" type="curve" smooth="yes"/>
      <point x="511" y="339"/>
      <point x="585" y="253"/>
      <point x="585" y="163" type="curve" smooth="yes"/>
      <point x="585" y="71"/>
      <point x="506" y="-9"/>
      <point x="342" y="-9" type="curve" smooth="yes"/>
      <point x="248" y="-9"/>
      <point x="167" y="11"/>
      <point x="116" y="38" type="curve" smooth="yes"/>
      <point x="104" y="43"/>
      <point x="100" y="57"/>
      <point x="106" y="68" type="curve" smooth="yes"/>
      <point x="111" y="80"/>
      <point x="125" y="84"/>
    </contour>
  </outline>
</glyph>
<glyph name="knDHA" format="1">
  <advance width="751"/>
  <unicode hex="0CA7"/>
  <outline>
    <contour>
      <point x="396" y="-93" type="curve" smooth="yes"/>
      <point x="396" y="-196" type="line" smooth="yes"/>
      <point x="396" y="-208"/>
      <point x="385" y="-219"/>
      <point x="373" y="-219" type="curve" smooth="yes"/>
      <point x="361" y="-219"/>
      <point x="350" y="-208"/>
      <point x="350" y="-196" type="curve" smooth="yes"/>
      <point x="350" y="-93" type="line" smooth="yes"/>
      <point x="350" y="-81"/>
      <point x="361" y="-70"/>
      <point x="373" y="-70" type="curve" smooth="yes"/>
      <point x="385" y="-70"/>
      <point x="396" y="-81"/>
    </contour>
    <component base="knDa" xOffset="15"/>
    <component base="knDA"/>
    <component base="knDa" xOffset="15"/>
    <component base="knDA"/>
  </outline>
</glyph>
<glyph name="knLA" format="1">
  <advance width="717"/>
  <unicode hex="0CB2"/>
  <outline>
    <contour>
      <point x="125" y="348" type="curve" smooth="yes"/>
      <point x="153" y="321"/>
      <point x="188" y="299"/>
      <point x="224" y="299" type="curve" smooth="yes"/>
      <point x="261" y="299"/>
      <point x="291" y="322"/>
      <point x="291" y="359" type="curve" smooth="yes"/>
      <point x="291" y="396"/>
      <point x="265" y="425"/>
      <point x="222" y="425" type="curve" smooth="yes"/>
      <point x="158" y="425"/>
      <point x="116" y="334"/>
      <point x="116" y="249" type="curve" smooth="yes"/>
      <point x="116" y="136"/>
      <point x="207" y="46"/>
      <point x="369" y="46" type="curve" smooth="yes"/>
      <point x="538" y="46"/>
      <point x="604" y="147"/>
      <point x="604" y="245" type="curve" smooth="yes"/>
      <point x="604" y="306"/>
      <point x="573" y="373"/>
      <point x="532" y="417" type="curve" smooth="yes"/>
      <point x="524" y="426"/>
      <point x="524" y="441"/>
      <point x="533" y="450" type="curve" smooth="yes"/>
      <point x="542" y="458"/>
      <point x="557" y="458"/>
      <point x="566" y="449" type="curve" smooth="yes"/>
      <point x="615" y="397"/>
      <point x="650" y="316"/>
      <point x="650" y="245" type="curve" smooth="yes"/>
      <point x="650" y="127"/>
      <point x="576" y="0"/>
      <point x="369" y="0" type="curve" smooth="yes"/>
      <point x="171" y="0"/>
      <point x="70" y="116"/>
      <point x="70" y="249" type="curve" smooth="yes"/>
      <point x="70" y="370"/>
      <point x="142" y="471"/>
      <point x="222" y="471" type="curve" smooth="yes"/>
      <point x="295" y="471"/>
      <point x="337" y="420"/>
      <point x="337" y="359" type="curve" smooth="yes"/>
      <point x="337" y="296"/>
      <point x="289" y="253"/>
      <point x="224" y="253" type="curve" smooth="yes"/>
      <point x="176" y="253"/>
      <point x="129" y="279"/>
      <point x="93" y="316" type="curve" smooth="yes"/>
      <point x="84" y="325"/>
      <point x="84" y="339"/>
      <point x="93" y="348" type="curve" smooth="yes"/>
      <point x="102" y="357"/>
      <point x="116" y="357"/>
    </contour>
  </outline>
</glyph>
<glyph name="knSA" format="1">
  <advance width="688"/>
  <unicode hex="0CB8"/>
  <outline>
    <contour>
      <point x="93" y="456" type="curve" smooth="yes"/>
      <point x="474" y="456" type="line" smooth="yes"/>
      <point x="537" y="456"/>
      <point x="575" y="478"/>
      <point x="602" y="523" type="curve" smooth="yes"/>
      <point x="609" y="534"/>
      <point x="623" y="537"/>
      <point x="634" y="531" type="curve" smooth="yes"/>
      <point x="645" y="524"/>
      <point x="648" y="510"/>
      <point x="642" y="499" type="curve" smooth="yes"/>
      <point x="605" y="440"/>
      <point x="557" y="410"/>
      <point x="474" y="410" type="curve" smooth="yes"/>
      <point x="93" y="410" type="line" smooth="yes"/>
      <point x="81" y="410"/>
      <point x="70" y="421"/>
      <point x="70" y="433" type="curve" smooth="yes"/>
      <point x="70" y="445"/>
      <point x="81" y="456"/>
    </contour>
    <contour>
      <point x="95" y="13" type="curve" smooth="yes"/>
      <point x="95" y="92"/>
      <point x="115" y="144"/>
      <point x="144" y="173" type="curve" smooth="yes"/>
      <point x="164" y="193"/>
      <point x="193" y="208"/>
      <point x="229" y="208" type="curve" smooth="yes"/>
      <point x="271" y="208"/>
      <point x="322" y="188"/>
      <point x="366" y="128" type="curve" smooth="yes"/>
      <point x="399" y="82"/>
      <point x="423" y="46"/>
      <point x="476" y="46" type="curve" smooth="yes"/>
      <point x="530" y="46"/>
      <point x="568" y="87"/>
      <point x="568" y="168" type="curve" smooth="yes"/>
      <point x="568" y="194"/>
      <point x="562" y="229"/>
      <point x="554" y="256" type="curve" smooth="yes"/>
      <point x="550" y="268"/>
      <point x="557" y="281"/>
      <point x="569" y="285" type="curve" smooth="yes"/>
      <point x="581" y="289"/>
      <point x="594" y="282"/>
      <point x="598" y="270" type="curve" smooth="yes"/>
      <point x="608" y="239"/>
      <point x="614" y="198"/>
      <point x="614" y="168" type="curve" smooth="yes"/>
      <point x="614" y="47"/>
      <point x="550" y="0"/>
      <point x="476" y="0" type="curve" smooth="yes"/>
      <point x="409" y="0"/>
      <point x="373" y="40"/>
      <point x="328" y="100" type="curve" smooth="yes"/>
      <point x="296" y="144"/>
      <point x="261" y="162"/>
      <point x="229" y="162" type="curve" smooth="yes"/>
      <point x="207" y="162"/>
      <point x="188" y="153"/>
      <point x="176" y="141" type="curve" smooth="yes"/>
      <point x="153" y="118"/>
      <point x="141" y="74"/>
      <point x="141" y="13" type="curve" smooth="yes"/>
      <point x="141" y="1"/>
      <point x="130" y="-10"/>
      <point x="118" y="-10" type="curve" smooth="yes"/>
      <point x="106" y="-10"/>
      <point x="95" y="1"/>
    </contour>
    <contour>
      <point x="313" y="413" type="curve" smooth="yes"/>
      <point x="292" y="394"/>
      <point x="284" y="372"/>
      <point x="284" y="352" type="curve" smooth="yes"/>
      <point x="284" y="320"/>
      <point x="311" y="292"/>
      <point x="353" y="292" type="curve" smooth="yes"/>
      <point x="397" y="292"/>
      <point x="422" y="319"/>
      <point x="422" y="353" type="curve" smooth="yes"/>
      <point x="422" y="373"/>
      <point x="415" y="395"/>
      <point x="393" y="415" type="curve" smooth="yes"/>
      <point x="384" y="424"/>
      <point x="384" y="439"/>
      <point x="392" y="448" type="curve" smooth="yes"/>
      <point x="401" y="457"/>
      <point x="416" y="457"/>
      <point x="425" y="449" type="curve" smooth="yes"/>
      <point x="457" y="419"/>
      <point x="468" y="383"/>
      <point x="468" y="353" type="curve" smooth="yes"/>
      <point x="468" y="297"/>
      <point x="429" y="246"/>
      <point x="353" y="246" type="curve" smooth="yes"/>
      <point x="279" y="246"/>
      <point x="238" y="298"/>
      <point x="238" y="352" type="curve" smooth="yes"/>
      <point x="238" y="382"/>
      <point x="250" y="418"/>
      <point x="281" y="447" type="curve" smooth="yes"/>
      <point x="291" y="455"/>
      <point x="305" y="455"/>
      <point x="314" y="446" type="curve" smooth="yes"/>
      <point x="322" y="436"/>
      <point x="322" y="422"/>
    </contour>
  </outline>
</glyph>
<glyph name="knsignE" format="1">
  <advance width="0"/>
  <unicode hex="0CC6"/>
  <outline>
    <contour>
      <point x="-269" y="456" type="curve" smooth="yes"/>
      <point x="-188" y="456" type="line" smooth="yes"/>
      <point x="-98" y="456"/>
      <point x="-60" y="487"/>
      <point x="-60" y="532" type="curve" smooth="yes"/>
      <point x="-60" y="566"/>
      <point x="-87" y="589"/>
      <point x="-123" y="589" type="curve" smooth="yes"/>
      <point x="-166" y="589"/>
      <point x="-194" y="553"/>
      <point x="-194" y="508" type="curve" smooth="yes"/>
      <point x="-194" y="483"/>
      <point x="-187" y="458"/>
      <point x="-184" y="444" type="curve" smooth="yes"/>
      <point x="-181" y="432"/>
      <point x="-188" y="419"/>
      <point x="-200" y="416" type="curve" smooth="yes"/>
      <point x="-212" y="413"/>
      <point x="-225" y="420"/>
      <point x="-228" y="432" type="curve" smooth="yes"/>
      <point x="-233" y="450"/>
      <point x="-240" y="479"/>
      <point x="-240" y="508" type="curve" smooth="yes"/>
      <point x="-240" y="583"/>
      <point x="-190" y="635"/>
      <point x="-123" y="635" type="curve" smooth="yes"/>
      <point x="-57" y="635"/>
      <point x="-14" y="590"/>
      <point x="-14" y="532" type="curve" smooth="yes"/>
      <point x="-14" y="471"/>
      <point x="-44" y="410"/>
      <point x="-188" y="410" type="curve" smooth="yes"/>
      <point x="-269" y="410" type="line" smooth="yes"/>
      <point x="-281" y="410"/>
      <point x="-292" y="421"/>
      <point x="-292" y="433" type="curve" smooth="yes"/>
      <point x="-292" y="445"/>
      <point x="-281" y="456"/>
    </contour>
  </outline>
</glyph>
<glyph name="knLLLA" format="1">
  <advance width="767"/>
  <unicode hex="0CDE"/>
  <outline>
    <contour>
      <point x="137" y="342" type="curve" smooth="yes"/>
      <point x="161" y="315"/>
      <point x="188" y="292"/>
      <point x="224" y="292" type="curve" smooth="yes"/>
      <point x="259" y="292"/>
      <point x="289" y="314"/>
      <point x="289" y="351" type="curve" smooth="yes"/>
      <point x="289" y="387"/>
      <point x="264" y="412"/>
      <point x="224" y="412" type="curve" smooth="yes"/>
      <point x="163" y="412"/>
      <point x="117" y="326"/>
      <point x="117" y="225" type="curve" smooth="yes"/>
      <point x="117" y="127"/>
      <point x="166" y="46"/>
      <point x="241" y="46" type="curve" smooth="yes"/>
      <point x="298" y="46"/>
      <point x="331" y="76"/>
      <point x="363" y="135" type="curve" smooth="yes"/>
      <point x="366" y="142"/>
      <point x="375" y="147"/>
      <point x="383" y="147" type="curve" smooth="yes"/>
      <point x="388" y="147" type="line" smooth="yes"/>
      <point x="396" y="147"/>
      <point x="405" y="142"/>
      <point x="408" y="135" type="curve" smooth="yes"/>
      <point x="440" y="76"/>
      <point x="473" y="46"/>
      <point x="530" y="46" type="curve" smooth="yes"/>
      <point x="605" y="46"/>
      <point x="654" y="127"/>
      <point x="654" y="225" type="curve" smooth="yes"/>
      <point x="654" y="326"/>
      <point x="608" y="412"/>
      <point x="547" y="412" type="curve" smooth="yes"/>
      <point x="507" y="412"/>
      <point x="482" y="387"/>
      <point x="482" y="351" type="curve" smooth="yes"/>
      <point x="482" y="314"/>
      <point x="512" y="292"/>
      <point x="547" y="292" type="curve" smooth="yes"/>
      <point x="583" y="292"/>
      <point x="610" y="315"/>
      <point x="634" y="342" type="curve" smooth="yes"/>
      <point x="642" y="351"/>
      <point x="657" y="352"/>
      <point x="666" y="344" type="curve" smooth="yes"/>
      <point x="675" y="336"/>
      <point x="676" y="321"/>
      <point x="668" y="312" type="curve" smooth="yes"/>
      <point x="636" y="275"/>
      <point x="595" y="246"/>
      <point x="547" y="246" type="curve" smooth="yes"/>
      <point x="486" y="246"/>
      <point x="436" y="288"/>
      <point x="436" y="351" type="curve" smooth="yes"/>
      <point x="436" y="413"/>
      <point x="477" y="458"/>
      <point x="547" y="458" type="curve" smooth="yes"/>
      <point x="624" y="458"/>
      <point x="700" y="370"/>
      <point x="700" y="225" type="curve" smooth="yes"/>
      <point x="700" y="91"/>
      <point x="625" y="0"/>
      <point x="530" y="0" type="curve" smooth="yes"/>
      <point x="457" y="0"/>
      <point x="410" y="34"/>
      <point x="368" y="113" type="curve"/>
      <point x="388" y="101" type="line"/>
      <point x="383" y="101" type="line"/>
      <point x="403" y="113" type="line"/>
      <point x="361" y="34"/>
      <point x="314" y="0"/>
      <point x="241" y="0" type="curve" smooth="yes"/>
      <point x="146" y="0"/>
      <point x="71" y="91"/>
      <point x="71" y="225" type="curve" smooth="yes"/>
      <point x="71" y="370"/>
      <point x="147" y="458"/>
      <point x="224" y="458" type="curve" smooth="yes"/>
      <point x="294" y="458"/>
      <point x="335" y="413"/>
      <point x="335" y="351" type="curve" smooth="yes"/>
      <point x="335" y="288"/>
      <point x="285" y="246"/>
      <point x="224" y="246" type="curve" smooth="yes"/>
      <point x="176" y="246"/>
      <point x="135" y="275"/>
      <point x="103" y="312" type="curve" smooth="yes"/>
      <point x="95" y="321"/>
      <point x="96" y="336"/>
      <point x="105" y="344" type="curve" smooth="yes"/>
      <point x="114" y="352"/>
      <point x="129" y="351"/>
    </contour>
  </outline>
</glyph>
<glyph name="zerowidthnonjoiner" format="1">
  <advance width="0"/>
  <unicode hex="200C"/>
  <outline>
    <contour>
      <point x="18" y="738" type="curve" smooth="yes"/>
      <point x="18" y="-290" type="line" smooth="yes"/>
      <point x="18" y="-302"/>
      <point x="7" y="-313"/>
      <point x="-5" y="-313" type="curve" smooth="yes"/>
      <point x="-17" y="-313"/>
      <point x="-28" y="-302"/>
      <point x="-28" y="-290" type="curve" smooth="yes"/>
      <point x="-28" y="738" type="line" smooth="yes"/>
      <point x="-28" y="750"/>
      <point x="-17" y="761"/>
      <point x="-5" y="761" type="curve" smooth="yes"/>
      <point x="7" y="761"/>
      <point x="18" y="750"/>
    </contour>
  </outline>
</glyph>
<glyph name="zerowidthjoiner" format="1">
  <advance width="0"/>
  <unicode hex="200D"/>
  <outline>
    <contour>
      <point x="18" y="658" type="curve" smooth="yes"/>
      <point x="18" y="-290" type="line" smooth="yes"/>
      <point x="18" y="-302"/>
      <point x="7" y="-313"/>
      <point x="-5" y="-313" type="curve" smooth="yes"/>
      <point x="-17" y="-313"/>
      <point x="-28" y="-302"/>
      <point x="-28" y="-290" type="curve" smooth="yes"/>
      <point x="-28" y="658" type="line" smooth="yes"/>
      <point x="-28" y="670"/>
      <point x="-17" y="681"/>
      <point x="-5" y="681" type="curve" smooth="yes"/>
      <point x="7" y="681"/>
      <point x="18" y="670"/>
    </contour>
    <contour>
      <point x="-84" y="770" type="curve" smooth="yes"/>
      <point x="106" y="580" type="line" smooth="yes"/>
      <point x="115" y="571"/>
      <point x="115" y="557"/>
      <point x="106" y="548" type="curve" smooth="yes"/>
      <point x="97" y="539"/>
      <point x="83" y="539"/>
      <point x="74" y="548" type="curve" smooth="yes"/>
      <point x="-116" y="738" type="line" smooth="yes"/>
      <point x="-125" y="747"/>
      <point x="-125" y="761"/>
      <point x="-116" y="770" type="curve" smooth="yes"/>
      <point x="-107" y="779"/>
      <point x="-93" y="779"/>
    </contour>
    <contour>
      <point x="-116" y="580" type="curve" smooth="yes"/>
      <point x="74" y="770" type="line" smooth="yes"/>
      <point x="83" y="779"/>
      <point x="97" y="779"/>
      <point x="106" y="770" type="curve" smooth="yes"/>
      <point x="115" y="761"/>
      <point x="115" y="747"/>
      <point x="106" y="738" type="curve" smooth="yes"/>
      <point x="-84" y="548" type="line" smooth="yes"/>
      <point x="-93" y="539"/>
      <point x="-107" y="539"/>
      <point x="-116" y="548" type="curve" smooth="yes"/>
      <point x="-125" y="557"/>
      <point x="-125" y="571"/>
    </contour>
  </outline>
</glyph>
<glyph name="quoteright" format="1">
  <advance width="245"/>
  <unicode hex="2019"/>
  <outline>
    <contour>
      <point x="148" y="576" type="curve" smooth="yes"/>
      <point x="152" y="562"/>
      <point x="155" y="541"/>
      <point x="155" y="519" type="curve" smooth="yes"/>
      <point x="155" y="468"/>
      <point x="138" y="416"/>
      <point x="109" y="377" type="curve" smooth="yes"/>
      <point x="101" y="366"/>
      <point x="85" y="364"/>
      <point x="74" y="372" type="curve" smooth="yes"/>
      <point x="63" y="380"/>
      <point x="61" y="396"/>
      <point x="69" y="407" type="curve" smooth="yes"/>
      <point x="92" y="438"/>
      <point x="105" y="478"/>
      <point x="105" y="519" type="curve" smooth="yes"/>
      <point x="105" y="535"/>
      <point x="104" y="550"/>
      <point x="100" y="560" type="curve" smooth="yes"/>
      <point x="96" y="573"/>
      <point x="103" y="587"/>
      <point x="116" y="592" type="curve" smooth="yes"/>
      <point x="129" y="596"/>
      <point x="143" y="589"/>
    </contour>
  </outline>
</glyph>
<glyph name="quotedblleft" format="1">
  <advance width="406"/>
  <unicode hex="201C"/>
  <outline>
    <contour>
      <point x="137" y="377" type="curve" smooth="yes"/>
      <point x="108" y="415"/>
      <point x="90" y="466"/>
      <point x="90" y="510" type="curve" smooth="yes"/>
      <point x="90" y="537"/>
      <point x="92" y="555"/>
      <point x="97" y="573" type="curve" smooth="yes"/>
      <point x="100" y="586"/>
      <point x="114" y="595"/>
      <point x="127" y="591" type="curve" smooth="yes"/>
      <point x="140" y="588"/>
      <point x="149" y="574"/>
      <point x="145" y="561" type="curve" smooth="yes"/>
      <point x="142" y="547"/>
      <point x="140" y="531"/>
      <point x="140" y="510" type="curve" smooth="yes"/>
      <point x="140" y="476"/>
      <point x="154" y="437"/>
      <point x="177" y="407" type="curve" smooth="yes"/>
      <point x="185" y="396"/>
      <point x="183" y="380"/>
      <point x="172" y="372" type="curve" smooth="yes"/>
      <point x="161" y="364"/>
      <point x="145" y="366"/>
    </contour>
    <contour>
      <point x="297" y="377" type="curve" smooth="yes"/>
      <point x="268" y="415"/>
      <point x="250" y="466"/>
      <point x="250" y="510" type="curve" smooth="yes"/>
      <point x="250" y="537"/>
      <point x="252" y="555"/>
      <point x="257" y="573" type="curve" smooth="yes"/>
      <point x="260" y="586"/>
      <point x="274" y="595"/>
      <point x="287" y="591" type="curve" smooth="yes"/>
      <point x="300" y="588"/>
      <point x="309" y="574"/>
      <point x="305" y="561" type="curve" smooth="yes"/>
      <point x="302" y="547"/>
      <point x="300" y="531"/>
      <point x="300" y="510" type="curve" smooth="yes"/>
      <point x="300" y="476"/>
      <point x="314" y="437"/>
      <point x="337" y="407" type="curve" smooth="yes"/>
      <point x="345" y="396"/>
      <point x="343" y="380"/>
      <point x="332" y="372" type="curve" smooth="yes"/>
      <point x="321" y="364"/>
      <point x="305" y="366"/>
    </contour>
  </outline>
</glyph>
<glyph name="guilsinglleft" format="1">
  <advance width="268"/>
  <unicode hex="2039"/>
  <outline>
    <contour>
      <point x="91" y="204" type="curve" smooth="yes"/>
      <point x="202" y="54" type="line" smooth="yes"/>
      <point x="210" y="43"/>
      <point x="208" y="27"/>
      <point x="197" y="19" type="curve" smooth="yes"/>
      <point x="186" y="11"/>
      <point x="170" y="13"/>
      <point x="162" y="24" type="curve" smooth="yes"/>
      <point x="51" y="174" type="line" smooth="yes"/>
      <point x="43" y="185"/>
      <point x="45" y="201"/>
      <point x="56" y="209" type="curve" smooth="yes"/>
      <point x="67" y="217"/>
      <point x="83" y="215"/>
    </contour>
    <contour>
      <point x="202" y="329" type="curve" smooth="yes"/>
      <point x="91" y="179" type="line" smooth="yes"/>
      <point x="83" y="168"/>
      <point x="67" y="166"/>
      <point x="56" y="174" type="curve" smooth="yes"/>
      <point x="45" y="182"/>
      <point x="43" y="198"/>
      <point x="51" y="209" type="curve" smooth="yes"/>
      <point x="162" y="359" type="line" smooth="yes"/>
      <point x="170" y="370"/>
      <point x="186" y="372"/>
      <point x="197" y="364" type="curve" smooth="yes"/>
      <point x="208" y="356"/>
      <point x="210" y="340"/>
    </contour>
  </outline>
</glyph>
<glyph name="uni20BD" format="1">
  <advance width="532"/>
  <unicode hex="20BD"/>
  <outline>
    <contour>
      <point x="65" y="287" type="curve" smooth="yes"/>
      <point x="293" y="287" type="line" smooth="yes"/>
      <point x="381" y="287"/>
      <point x="427" y="329"/>
      <point x="427" y="385" type="curve" smooth="yes"/>
      <point x="427" y="447"/>
      <point x="372" y="483"/>
      <point x="293" y="483" type="curve" smooth="yes"/>
      <point x="158" y="483" type="line"/>
      <point x="183" y="508" type="line"/>
      <point x="183" y="23" type="line" smooth="yes"/>
      <point x="183" y="9"/>
      <point x="172" y="-2"/>
      <point x="158" y="-2" type="curve" smooth="yes"/>
      <point x="145" y="-2"/>
      <point x="133" y="10"/>
      <point x="133" y="23" type="curve" smooth="yes"/>
      <point x="133" y="508" type="line" smooth="yes"/>
      <point x="133" y="522"/>
      <point x="144" y="533"/>
      <point x="158" y="533" type="curve" smooth="yes"/>
      <point x="293" y="533" type="line" smooth="yes"/>
      <point x="412" y="533"/>
      <point x="477" y="469"/>
      <point x="477" y="385" type="curve" smooth="yes"/>
      <point x="477" y="307"/>
      <point x="427" y="237"/>
      <point x="293" y="237" type="curve" smooth="yes"/>
      <point x="65" y="237" type="line" smooth="yes"/>
      <point x="52" y="237"/>
      <point x="40" y="249"/>
      <point x="40" y="262" type="curve" smooth="yes"/>
      <point x="40" y="276"/>
      <point x="52" y="287"/>
    </contour>
    <contour>
      <point x="64" y="138" type="curve" smooth="yes"/>
      <point x="326" y="138" type="line" smooth="yes"/>
      <point x="340" y="138"/>
      <point x="351" y="127"/>
      <point x="351" y="113" type="curve" smooth="yes"/>
      <point x="351" y="100"/>
      <point x="340" y="88"/>
      <point x="326" y="88" type="curve" smooth="yes"/>
      <point x="64" y="88" type="line" smooth="yes"/>
      <point x="51" y="88"/>
      <point x="39" y="100"/>
      <point x="39" y="113" type="curve" smooth="yes"/>
      <point x="39" y="127"/>
      <point x="51" y="138"/>
    </contour>
  </outline>
</glyph>
<glyph name="approxequal" format="1">
  <advance width="530"/>
  <unicode hex="2248"/>
  <outline>
    <contour>
      <point x="48" y="335" type="curve" smooth="yes"/>
      <point x="90" y="401"/>
      <point x="132" y="429"/>
      <point x="177" y="429" type="curve" smooth="yes"/>
      <point x="219" y="429"/>
      <point x="248" y="410"/>
      <point x="283" y="380" type="curve" smooth="yes"/>
      <point x="308" y="358"/>
      <point x="329" y="340"/>
      <point x="357" y="340" type="curve" smooth="yes"/>
      <point x="394" y="340"/>
      <point x="419" y="367"/>
      <point x="451" y="415" type="curve" smooth="yes"/>
      <point x="459" y="426"/>
      <point x="475" y="429"/>
      <point x="486" y="422" type="curve" smooth="yes"/>
      <point x="497" y="414"/>
      <point x="500" y="398"/>
      <point x="493" y="387" type="curve" smooth="yes"/>
      <point x="447" y="319"/>
      <point x="408" y="290"/>
      <point x="357" y="290" type="curve" smooth="yes"/>
      <point x="319" y="290"/>
      <point x="288" y="310"/>
      <point x="249" y="342" type="curve" smooth="yes"/>
      <point x="226" y="364"/>
      <point x="207" y="379"/>
      <point x="177" y="379" type="curve" smooth="yes"/>
      <point x="144" y="379"/>
      <point x="118" y="353"/>
      <point x="90" y="309" type="curve" smooth="yes"/>
      <point x="83" y="297"/>
      <point x="67" y="294"/>
      <point x="56" y="301" type="curve" smooth="yes"/>
      <point x="44" y="308"/>
      <point x="41" y="324"/>
    </contour>
    <contour>
      <point x="48" y="134" type="curve" smooth="yes"/>
      <point x="90" y="200"/>
      <point x="127" y="232"/>
      <point x="177" y="232" type="curve" smooth="yes"/>
      <point x="213" y="232"/>
      <point x="246" y="209"/>
      <point x="281" y="182" type="curve" smooth="yes"/>
      <point x="309" y="160"/>
      <point x="329" y="142"/>
      <point x="358" y="142" type="curve" smooth="yes"/>
      <point x="394" y="142"/>
      <point x="419" y="167"/>
      <point x="451" y="215" type="curve" smooth="yes"/>
      <point x="459" y="226"/>
      <point x="475" y="229"/>
      <point x="486" y="222" type="curve" smooth="yes"/>
      <point x="497" y="214"/>
      <point x="500" y="198"/>
      <point x="493" y="187" type="curve" smooth="yes"/>
      <point x="447" y="117"/>
      <point x="408" y="92"/>
      <point x="358" y="92" type="curve" smooth="yes"/>
      <point x="319" y="92"/>
      <point x="289" y="112"/>
      <point x="251" y="142" type="curve" smooth="yes"/>
      <point x="226" y="161"/>
      <point x="203" y="182"/>
      <point x="177" y="182" type="curve" smooth="yes"/>
      <point x="141" y="182"/>
      <point x="118" y="152"/>
      <point x="90" y="108" type="curve" smooth="yes"/>
      <point x="83" y="96"/>
      <point x="67" y="93"/>
      <point x="56" y="100" type="curve" smooth="yes"/>
      <point x="44" y="107"/>
      <point x="41" y="123"/>
    </contour>
  </outline>
</glyph>
<glyph name="greaterequal" format="1">
  <advance width="530"/>
  <unicode hex="2265"/>
  <outline>
    <contour>
      <point x="96" y="104" type="curve" smooth="yes"/>
      <point x="433" y="104" type="line" smooth="yes"/>
      <point x="447" y="104"/>
      <point x="458" y="93"/>
      <point x="458" y="79" type="curve" smooth="yes"/>
      <point x="458" y="66"/>
      <point x="447" y="54"/>
      <point x="433" y="54" type="curve" smooth="yes"/>
      <point x="96" y="54" type="line" smooth="yes"/>
      <point x="83" y="54"/>
      <point x="71" y="66"/>
      <point x="71" y="79" type="curve" smooth="yes"/>
      <point x="71" y="93"/>
      <point x="83" y="104"/>
    </contour>
    <contour>
      <point x="434" y="287" type="curve" smooth="yes"/>
      <point x="124" y="177" type="line" smooth="yes"/>
      <point x="112" y="173"/>
      <point x="97" y="180"/>
      <point x="92" y="193" type="curve" smooth="yes"/>
      <point x="88" y="205"/>
      <point x="95" y="220"/>
      <point x="108" y="225" type="curve" smooth="yes"/>
      <point x="418" y="335" type="line" smooth="yes"/>
      <point x="430" y="339"/>
      <point x="445" y="332"/>
      <point x="450" y="319" type="curve" smooth="yes"/>
      <point x="454" y="307"/>
      <point x="447" y="292"/>
    </contour>
    <contour>
      <point x="119" y="453" type="curve" smooth="yes"/>
      <point x="440" y="338" type="line" smooth="yes"/>
      <point x="453" y="333"/>
      <point x="460" y="318"/>
      <point x="456" y="306" type="curve" smooth="yes"/>
      <point x="451" y="293"/>
      <point x="436" y="286"/>
      <point x="424" y="290" type="curve" smooth="yes"/>
      <point x="103" y="405" type="line" smooth="yes"/>
      <point x="90" y="410"/>
      <point x="83" y="425"/>
      <point x="87" y="437" type="curve" smooth="yes"/>
      <point x="92" y="450"/>
      <point x="107" y="457"/>
    </contour>
  </outline>
</glyph>
<glyph name="circumflexcmb.cap" format="1">
  <advance width="0"/>
  <outline>
    <contour>
      <point x="5" y="705" type="curve" smooth="yes"/>
      <point x="-28" y="681"/>
      <point x="-63" y="657"/>
      <point x="-91" y="636" type="curve" smooth="yes"/>
      <point x="-100" y="629"/>
      <point x="-114" y="631"/>
      <point x="-122" y="641" type="curve" smooth="yes"/>
      <point x="-129" y="650"/>
      <point x="-127" y="664"/>
      <point x="-117" y="672" type="curve" smooth="yes"/>
      <point x="-89" y="693"/>
      <point x="-54" y="717"/>
      <point x="-21" y="741" type="curve" smooth="yes"/>
      <point x="-11" y="748"/>
      <point x="3" y="746"/>
      <point x="10" y="736" type="curve" smooth="yes"/>
      <point x="17" y="726"/>
      <point x="15" y="712"/>
    </contour>
    <contour>
      <point x="82" y="636" type="curve" smooth="yes"/>
      <point x="54" y="657"/>
      <point x="20" y="681"/>
      <point x="-14" y="705" type="curve" smooth="yes"/>
      <point x="-23" y="712"/>
      <point x="-26" y="726"/>
      <point x="-19" y="736" type="curve" smooth="yes"/>
      <point x="-12" y="745"/>
      <point x="2" y="748"/>
      <point x="12" y="741" type="curve" smooth="yes"/>
      <point x="46" y="717"/>
      <point x="80" y="693"/>
      <point x="108" y="672" type="curve" smooth="yes"/>
      <point x="118" y="664"/>
      <point x="120" y="650"/>
      <point x="113" y="641" type="curve" smooth="yes"/>
      <point x="105" y="631"/>
      <point x="91" y="629"/>
    </contour>
  </outline>
</glyph>
<glyph name="knCA.base" format="1">
  <advance width="780"/>
  <outline>
    <contour>
      <point x="438" y="309" type="curve" smooth="yes"/>
      <point x="715" y="309" type="line" smooth="yes"/>
      <point x="727" y="309"/>
      <point x="738" y="298"/>
      <point x="738" y="286" type="curve" smooth="yes"/>
      <point x="738" y="274"/>
      <point x="727" y="263"/>
      <point x="715" y="263" type="curve" smooth="yes"/>
      <point x="438" y="263" type="line" smooth="yes"/>
      <point x="426" y="263"/>
      <point x="415" y="274"/>
      <point x="415" y="286" type="curve" smooth="yes"/>
      <point x="415" y="298"/>
      <point x="426" y="309"/>
    </contour>
    <contour>
      <point x="440" y="456" type="curve" smooth="yes"/>
      <point x="597" y="456" type="line" smooth="yes"/>
      <point x="609" y="456"/>
      <point x="620" y="445"/>
      <point x="620" y="433" type="curve" smooth="yes"/>
      <point x="620" y="421"/>
      <point x="609" y="410"/>
      <point x="597" y="410" type="curve" smooth="yes"/>
      <point x="440" y="410" type="line" smooth="yes"/>
      <point x="428" y="410"/>
      <point x="417" y="421"/>
      <point x="417" y="433" type="curve" smooth="yes"/>
      <point x="417" y="445"/>
      <point x="428" y="456"/>
    </contour>
    <contour>
      <point x="567" y="292" type="curve" smooth="yes"/>
      <point x="567" y="405" type="line" smooth="yes"/>
      <point x="567" y="417"/>
      <point x="578" y="428"/>
      <point x="590" y="428" type="curve" smooth="yes"/>
      <point x="602" y="428"/>
      <point x="613" y="417"/>
      <point x="613" y="405" type="curve" smooth="yes"/>
      <point x="613" y="292" type="line" smooth="yes"/>
      <point x="613" y="280"/>
      <point x="602" y="269"/>
      <point x="590" y="269" type="curve" smooth="yes"/>
      <point x="578" y="269"/>
      <point x="567" y="280"/>
    </contour>
    <contour>
      <point x="75" y="417" type="curve" smooth="yes"/>
      <point x="105" y="451"/>
      <point x="140" y="471"/>
      <point x="183" y="471" type="curve" smooth="yes"/>
      <point x="251" y="471"/>
      <point x="291" y="426"/>
      <point x="291" y="371" type="curve" smooth="yes"/>
      <point x="291" y="327"/>
      <point x="269" y="288"/>
      <point x="203" y="235" type="curve" smooth="yes"/>
      <point x="162" y="202"/>
      <point x="133" y="167"/>
      <point x="133" y="125" type="curve" smooth="yes"/>
      <point x="133" y="81"/>
      <point x="165" y="46"/>
      <point x="222" y="46" type="curve" smooth="yes"/>
      <point x="281" y="46"/>
      <point x="320" y="73"/>
      <point x="359" y="136" type="curve" smooth="yes"/>
      <point x="363" y="142"/>
      <point x="372" y="147"/>
      <point x="379" y="147" type="curve" smooth="yes"/>
      <point x="384" y="147" type="line" smooth="yes"/>
      <point x="391" y="147"/>
      <point x="400" y="142"/>
      <point x="403" y="136" type="curve" smooth="yes"/>
      <point x="440" y="79"/>
      <point x="480" y="46"/>
      <point x="545" y="46" type="curve" smooth="yes"/>
      <point x="602" y="46"/>
      <point x="637" y="87"/>
      <point x="637" y="133" type="curve" smooth="yes"/>
      <point x="637" y="179"/>
      <point x="616" y="217"/>
      <point x="567" y="255" type="curve" smooth="yes"/>
      <point x="557" y="263"/>
      <point x="555" y="277"/>
      <point x="563" y="287" type="curve" smooth="yes"/>
      <point x="571" y="297"/>
      <point x="585" y="299"/>
      <point x="595" y="291" type="curve" smooth="yes"/>
      <point x="658" y="241"/>
      <point x="683" y="191"/>
      <point x="683" y="133" type="curve" smooth="yes"/>
      <point x="683" y="63"/>
      <point x="632" y="0"/>
      <point x="545" y="0" type="curve" smooth="yes"/>
      <point x="464" y="0"/>
      <point x="412" y="39"/>
      <point x="365" y="112" type="curve"/>
      <point x="384" y="101" type="line"/>
      <point x="379" y="101" type="line"/>
      <point x="399" y="112" type="line"/>
      <point x="348" y="31"/>
      <point x="297" y="0"/>
      <point x="222" y="0" type="curve" smooth="yes"/>
      <point x="133" y="0"/>
      <point x="87" y="59"/>
      <point x="87" y="125" type="curve" smooth="yes"/>
      <point x="87" y="179"/>
      <point x="120" y="226"/>
      <point x="175" y="271" type="curve" smooth="yes"/>
      <point x="223" y="310"/>
      <point x="245" y="337"/>
      <point x="245" y="371" type="curve" smooth="yes"/>
      <point x="245" y="402"/>
      <point x="219" y="425"/>
      <point x="183" y="425" type="curve" smooth="yes"/>
      <point x="154" y="425"/>
      <point x="129" y="409"/>
      <point x="109" y="387" type="curve" smooth="yes"/>
      <point x="101" y="377"/>
      <point x="86" y="377"/>
      <point x="77" y="385" type="curve" smooth="yes"/>
      <point x="67" y="393"/>
      <point x="67" y="408"/>
    </contour>
  </outline>
</glyph>
<glyph name="knDDHA.base" format="1">
  <advance width="755"/>
  <outline>
    <contour>
      <point x="399" y="-93" type="curve" smooth="yes"/>
      <point x="399" y="-196" type="line" smooth="yes"/>
      <point x="399" y="-208"/>
      <point x="388" y="-219"/>
      <point x="376" y="-219" type="curve" smooth="yes"/>
      <point x="364" y="-219"/>
      <point x="353" y="-208"/>
      <point x="353" y="-196" type="curve" smooth="yes"/>
      <point x="353" y="-93" type="line" smooth="yes"/>
      <point x="353" y="-81"/>
      <point x="364" y="-70"/>
      <point x="376" y="-70" type="curve" smooth="yes"/>
      <point x="388" y="-70"/>
      <point x="399" y="-81"/>
    </contour>
    <contour>
      <point x="108" y="456" type="curve" smooth="yes"/>
      <point x="528" y="456" type="line" smooth="yes"/>
      <point x="540" y="456"/>
      <point x="551" y="445"/>
      <point x="551" y="433" type="curve" smooth="yes"/>
      <point x="551" y="421"/>
      <point x="540" y="410"/>
      <point x="528" y="410" type="curve" smooth="yes"/>
      <point x="108" y="410" type="line" smooth="yes"/>
      <point x="96" y="410"/>
      <point x="85" y="421"/>
      <point x="85" y="433" type="curve" smooth="yes"/>
      <point x="85" y="445"/>
      <point x="96" y="456"/>
    </contour>
    <contour>
      <point x="308" y="412" type="curve" smooth="yes"/>
      <point x="194" y="361"/>
      <point x="129" y="258"/>
      <point x="129" y="164" type="curve" smooth="yes"/>
      <point x="129" y="90"/>
      <point x="176" y="46"/>
      <point x="233" y="46" type="curve" smooth="yes"/>
      <point x="289" y="46"/>
      <point x="323" y="77"/>
      <point x="354" y="135" type="curve" smooth="yes"/>
      <point x="357" y="142"/>
      <point x="366" y="147"/>
      <point x="374" y="147" type="curve" smooth="yes"/>
      <point x="379" y="147" type="line" smooth="yes"/>
      <point x="387" y="147"/>
      <point x="396" y="142"/>
      <point x="399" y="135" type="curve" smooth="yes"/>
      <point x="432" y="74"/>
      <point x="484" y="46"/>
      <point x="533" y="46" type="curve" smooth="yes"/>
      <point x="610" y="46"/>
      <point x="655" y="95"/>
      <point x="655" y="168" type="curve" smooth="yes"/>
      <point x="655" y="233"/>
      <point x="604" y="331"/>
      <point x="466" y="413" type="curve" smooth="yes"/>
      <point x="456" y="420"/>
      <point x="452" y="434"/>
      <point x="458" y="445" type="curve" smooth="yes"/>
      <point x="465" y="455"/>
      <point x="479" y="459"/>
      <point x="490" y="453" type="curve" smooth="yes"/>
      <point x="650" y="357"/>
      <point x="701" y="241"/>
      <point x="701" y="168" type="curve" smooth="yes"/>
      <point x="701" y="67"/>
      <point x="638" y="0"/>
      <point x="533" y="0" type="curve" smooth="yes"/>
      <point x="470" y="0"/>
      <point x="402" y="34"/>
      <point x="359" y="113" type="curve"/>
      <point x="379" y="101" type="line"/>
      <point x="374" y="101" type="line"/>
      <point x="394" y="113" type="line"/>
      <point x="353" y="35"/>
      <point x="307" y="0"/>
      <point x="233" y="0" type="curve" smooth="yes"/>
      <point x="154" y="0"/>
      <point x="83" y="58"/>
      <point x="83" y="164" type="curve" smooth="yes"/>
      <point x="83" y="274"/>
      <point x="156" y="395"/>
      <point x="290" y="454" type="curve" smooth="yes"/>
      <point x="301" y="459"/>
      <point x="315" y="454"/>
      <point x="320" y="442" type="curve" smooth="yes"/>
      <point x="325" y="431"/>
      <point x="320" y="417"/>
    </contour>
    <contour>
      <point x="571" y="329" type="curve" smooth="yes"/>
      <point x="519" y="329"/>
      <point x="484" y="291"/>
      <point x="484" y="257" type="curve" smooth="yes"/>
      <point x="484" y="226"/>
      <point x="511" y="200"/>
      <point x="547" y="200" type="curve" smooth="yes"/>
      <point x="586" y="200"/>
      <point x="615" y="222"/>
      <point x="633" y="261" type="curve" smooth="yes"/>
      <point x="638" y="272"/>
      <point x="652" y="277"/>
      <point x="664" y="272" type="curve" smooth="yes"/>
      <point x="675" y="267"/>
      <point x="680" y="253"/>
      <point x="675" y="241" type="curve" smooth="yes"/>
      <point x="649" y="184"/>
      <point x="604" y="154"/>
      <point x="547" y="154" type="curve" smooth="yes"/>
      <point x="483" y="154"/>
      <point x="438" y="203"/>
      <point x="438" y="257" type="curve" smooth="yes"/>
      <point x="438" y="309"/>
      <point x="485" y="375"/>
      <point x="571" y="375" type="curve" smooth="yes"/>
      <point x="583" y="375"/>
      <point x="594" y="364"/>
      <point x="594" y="352" type="curve" smooth="yes"/>
      <point x="594" y="340"/>
      <point x="583" y="329"/>
    </contour>
  </outline>
</glyph>
<glyph name="knGHAU" format="1">
  <advance width="1153"/>
  <outline>
    <contour>
      <point x="528" y="456" type="curve" smooth="yes"/>
      <point x="623" y="456" type="line" smooth="yes"/>
      <point x="635" y="456"/>
      <point x="646" y="445"/>
      <point x="646" y="433" type="curve" smooth="yes"/>
      <point x="646" y="421"/>
      <point x="635" y="410"/>
      <point x="623" y="410" type="curve" smooth="yes"/>
      <point x="528" y="410" type="line" smooth="yes"/>
      <point x="516" y="410"/>
      <point x="505" y="421"/>
      <point x="505" y="433" type="curve" smooth="yes"/>
      <point x="505" y="445"/>
      <point x="516" y="456"/>
    </contour>
    <component base="knGHA.base"/>
    <component base="knsignAU" xOffset="816"/>
    <component base="knGHA.base"/>
    <component base="knsignAU" xOffset="816"/>
  </outline>
</glyph>
<glyph name="knGHA.base" format="1">
  <advance width="832"/>
  <outline>
    <contour>
      <point x="754" y="347" type="curve" smooth="yes"/>
      <point x="766" y="326"/>
      <point x="772" y="311"/>
      <point x="772" y="278" type="curve" smooth="yes"/>
      <point x="772" y="231"/>
      <point x="730" y="183"/>
      <point x="675" y="183" type="curve" smooth="yes"/>
      <point x="645" y="183"/>
      <point x="618" y="195"/>
      <point x="594" y="213" type="curve" smooth="yes"/>
      <point x="584" y="220"/>
      <point x="582" y="235"/>
      <point x="590" y="245" type="curve" smooth="yes"/>
      <point x="597" y="255"/>
      <point x="612" y="257"/>
      <point x="622" y="249" type="curve" smooth="yes"/>
      <point x="638" y="237"/>
      <point x="655" y="229"/>
      <point x="675" y="229" type="curve" smooth="yes"/>
      <point x="704" y="229"/>
      <point x="726" y="253"/>
      <point x="726" y="278" type="curve" smooth="yes"/>
      <point x="726" y="299"/>
      <point x="722" y="310"/>
      <point x="714" y="323" type="curve" smooth="yes"/>
      <point x="708" y="334"/>
      <point x="712" y="349"/>
      <point x="722" y="355" type="curve" smooth="yes"/>
      <point x="733" y="361"/>
      <point x="748" y="357"/>
    </contour>
    <contour>
      <point x="407" y="-93" type="curve" smooth="yes"/>
      <point x="407" y="-196" type="line" smooth="yes"/>
      <point x="407" y="-208"/>
      <point x="396" y="-219"/>
      <point x="384" y="-219" type="curve" smooth="yes"/>
      <point x="372" y="-219"/>
      <point x="361" y="-208"/>
      <point x="361" y="-196" type="curve" smooth="yes"/>
      <point x="361" y="-93" type="line" smooth="yes"/>
      <point x="361" y="-81"/>
      <point x="372" y="-70"/>
      <point x="384" y="-70" type="curve" smooth="yes"/>
      <point x="396" y="-70"/>
      <point x="407" y="-81"/>
    </contour>
    <contour>
      <point x="106" y="456" type="curve" smooth="yes"/>
      <point x="541" y="456" type="line" smooth="yes"/>
      <point x="553" y="456"/>
      <point x="564" y="445"/>
      <point x="564" y="433" type="curve" smooth="yes"/>
      <point x="564" y="421"/>
      <point x="553" y="410"/>
      <point x="541" y="410" type="curve" smooth="yes"/>
      <point x="106" y="410" type="line" smooth="yes"/>
      <point x="94" y="410"/>
      <point x="83" y="421"/>
      <point x="83" y="433" type="curve" smooth="yes"/>
      <point x="83" y="445"/>
      <point x="94" y="456"/>
    </contour>
    <contour>
      <point x="202" y="193" type="curve" smooth="yes"/>
      <point x="155" y="186"/>
      <point x="126" y="156"/>
      <point x="126" y="118" type="curve" smooth="yes"/>
      <point x="126" y="75"/>
      <point x="164" y="44"/>
      <point x="222" y="44" type="curve" smooth="yes"/>
      <point x="283" y="44"/>
      <point x="321" y="76"/>
      <point x="362" y="137" type="curve" smooth="yes"/>
      <point x="366" y="142"/>
      <point x="374" y="147"/>
      <point x="381" y="147" type="curve" smooth="yes"/>
      <point x="386" y="147" type="line" smooth="yes"/>
      <point x="393" y="147"/>
      <point x="402" y="142"/>
      <point x="405" y="136" type="curve" smooth="yes"/>
      <point x="442" y="79"/>
      <point x="482" y="46"/>
      <point x="547" y="46" type="curve" smooth="yes"/>
      <point x="603" y="46"/>
      <point x="639" y="83"/>
      <point x="639" y="125" type="curve" smooth="yes"/>
      <point x="639" y="164"/>
      <point x="616" y="197"/>
      <point x="587" y="217" type="curve" smooth="yes"/>
      <point x="577" y="225"/>
      <point x="575" y="240"/>
      <point x="582" y="250" type="curve" smooth="yes"/>
      <point x="590" y="260"/>
      <point x="605" y="262"/>
      <point x="615" y="255" type="curve" smooth="yes"/>
      <point x="654" y="225"/>
      <point x="685" y="180"/>
      <point x="685" y="125" type="curve" smooth="yes"/>
      <point x="685" y="61"/>
      <point x="635" y="0"/>
      <point x="547" y="0" type="curve" smooth="yes"/>
      <point x="466" y="0"/>
      <point x="414" y="39"/>
      <point x="367" y="112" type="curve"/>
      <point x="386" y="101" type="line"/>
      <point x="381" y="101" type="line"/>
      <point x="400" y="111" type="line"/>
      <point x="347" y="34"/>
      <point x="297" y="-2"/>
      <point x="222" y="-2" type="curve" smooth="yes"/>
      <point x="128" y="-2"/>
      <point x="80" y="55"/>
      <point x="80" y="118" type="curve" smooth="yes"/>
      <point x="80" y="176"/>
      <point x="119" y="228"/>
      <point x="196" y="239" type="curve" smooth="yes"/>
      <point x="208" y="241"/>
      <point x="220" y="232"/>
      <point x="222" y="219" type="curve" smooth="yes"/>
      <point x="224" y="207"/>
      <point x="215" y="195"/>
    </contour>
    <contour>
      <point x="343" y="413" type="curve" smooth="yes"/>
      <point x="322" y="394"/>
      <point x="314" y="372"/>
      <point x="314" y="352" type="curve" smooth="yes"/>
      <point x="314" y="320"/>
      <point x="341" y="292"/>
      <point x="383" y="292" type="curve" smooth="yes"/>
      <point x="427" y="292"/>
      <point x="452" y="319"/>
      <point x="452" y="353" type="curve" smooth="yes"/>
      <point x="452" y="373"/>
      <point x="445" y="395"/>
      <point x="423" y="415" type="curve" smooth="yes"/>
      <point x="414" y="424"/>
      <point x="414" y="439"/>
      <point x="422" y="448" type="curve" smooth="yes"/>
      <point x="431" y="457"/>
      <point x="446" y="457"/>
      <point x="455" y="449" type="curve" smooth="yes"/>
      <point x="487" y="419"/>
      <point x="498" y="383"/>
      <point x="498" y="353" type="curve" smooth="yes"/>
      <point x="498" y="297"/>
      <point x="459" y="246"/>
      <point x="383" y="246" type="curve" smooth="yes"/>
      <point x="309" y="246"/>
      <point x="268" y="298"/>
      <point x="268" y="352" type="curve" smooth="yes"/>
      <point x="268" y="382"/>
      <point x="280" y="418"/>
      <point x="311" y="447" type="curve" smooth="yes"/>
      <point x="321" y="455"/>
      <point x="335" y="455"/>
      <point x="344" y="446" type="curve" smooth="yes"/>
      <point x="352" y="436"/>
      <point x="352" y="422"/>
    </contour>
  </outline>
</glyph>
<glyph name="knGHI" format="1">
  <advance width="817"/>
  <outline>
    <contour>
      <point x="744" y="347" type="curve" smooth="yes"/>
      <point x="756" y="326"/>
      <point x="762" y="311"/>
      <point x="762" y="278" type="curve" smooth="yes"/>
      <point x="762" y="231"/>
      <point x="720" y="183"/>
      <point x="665" y="183" type="curve" smooth="yes"/>
      <point x="635" y="183"/>
      <point x="608" y="195"/>
      <point x="584" y="213" type="curve" smooth="yes"/>
      <point x="574" y="220"/>
      <point x="572" y="235"/>
      <point x="580" y="245" type="curve" smooth="yes"/>
      <point x="587" y="255"/>
      <point x="602" y="257"/>
      <point x="612" y="249" type="curve" smooth="yes"/>
      <point x="628" y="237"/>
      <point x="645" y="229"/>
      <point x="665" y="229" type="curve" smooth="yes"/>
      <point x="694" y="229"/>
      <point x="716" y="253"/>
      <point x="716" y="278" type="curve" smooth="yes"/>
      <point x="716" y="299"/>
      <point x="712" y="310"/>
      <point x="704" y="323" type="curve" smooth="yes"/>
      <point x="698" y="334"/>
      <point x="702" y="349"/>
      <point x="712" y="355" type="curve" smooth="yes"/>
      <point x="723" y="361"/>
      <point x="738" y="357"/>
    </contour>
    <contour>
      <point x="397" y="-93" type="curve" smooth="yes"/>
      <point x="397" y="-196" type="line" smooth="yes"/>
      <point x="397" y="-208"/>
      <point x="386" y="-219"/>
      <point x="374" y="-219" type="curve" smooth="yes"/>
      <point x="362" y="-219"/>
      <point x="351" y="-208"/>
      <point x="351" y="-196" type="curve" smooth="yes"/>
      <point x="351" y="-93" type="line" smooth="yes"/>
      <point x="351" y="-81"/>
      <point x="362" y="-70"/>
      <point x="374" y="-70" type="curve" smooth="yes"/>
      <point x="386" y="-70"/>
      <point x="397" y="-81"/>
    </contour>
    <contour>
      <point x="192" y="193" type="curve" smooth="yes"/>
      <point x="145" y="186"/>
      <point x="116" y="156"/>
      <point x="116" y="118" type="curve" smooth="yes"/>
      <point x="116" y="75"/>
      <point x="154" y="44"/>
      <point x="212" y="44" type="curve" smooth="yes"/>
      <point x="273" y="44"/>
      <point x="311" y="76"/>
      <point x="352" y="137" type="curve" smooth="yes"/>
      <point x="356" y="142"/>
      <point x="364" y="147"/>
      <point x="371" y="147" type="curve" smooth="yes"/>
      <point x="376" y="147" type="line" smooth="yes"/>
      <point x="383" y="147"/>
      <point x="392" y="142"/>
      <point x="395" y="136" type="curve" smooth="yes"/>
      <point x="432" y="79"/>
      <point x="472" y="46"/>
      <point x="537" y="46" type="curve" smooth="yes"/>
      <point x="593" y="46"/>
      <point x="629" y="83"/>
      <point x="629" y="125" type="curve" smooth="yes"/>
      <point x="629" y="164"/>
      <point x="606" y="197"/>
      <point x="577" y="217" type="curve" smooth="yes"/>
      <point x="567" y="225"/>
      <point x="565" y="240"/>
      <point x="572" y="250" type="curve" smooth="yes"/>
      <point x="580" y="260"/>
      <point x="595" y="262"/>
      <point x="605" y="255" type="curve" smooth="yes"/>
      <point x="644" y="225"/>
      <point x="675" y="180"/>
      <point x="675" y="125" type="curve" smooth="yes"/>
      <point x="675" y="61"/>
      <point x="625" y="0"/>
      <point x="537" y="0" type="curve" smooth="yes"/>
      <point x="456" y="0"/>
      <point x="404" y="39"/>
      <point x="357" y="112" type="curve"/>
      <point x="376" y="101" type="line"/>
      <point x="371" y="101" type="line"/>
      <point x="390" y="111" type="line"/>
      <point x="337" y="34"/>
      <point x="287" y="-2"/>
      <point x="212" y="-2" type="curve" smooth="yes"/>
      <point x="118" y="-2"/>
      <point x="70" y="55"/>
      <point x="70" y="118" type="curve" smooth="yes"/>
      <point x="70" y="176"/>
      <point x="109" y="228"/>
      <point x="186" y="239" type="curve" smooth="yes"/>
      <point x="198" y="241"/>
      <point x="210" y="232"/>
      <point x="212" y="219" type="curve" smooth="yes"/>
      <point x="214" y="207"/>
      <point x="205" y="195"/>
    </contour>
    <component base="knsignI" xOffset="675"/>
    <component base="knsignI" xOffset="675"/>
  </outline>
</glyph>
<glyph name="knHAc2" format="1">
  <advance width="0"/>
  <outline>
    <contour>
      <point x="-61" y="-238" type="curve" smooth="yes"/>
      <point x="-61" y="-305"/>
      <point x="-114" y="-363"/>
      <point x="-203" y="-363" type="curve" smooth="yes"/>
      <point x="-286" y="-363"/>
      <point x="-338" y="-306"/>
      <point x="-338" y="-238" type="curve" smooth="yes"/>
      <point x="-338" y="-175"/>
      <point x="-285" y="-116"/>
      <point x="-203" y="-116" type="curve" smooth="yes"/>
      <point x="-111" y="-116"/>
      <point x="-61" y="-176"/>
    </contour>
    <contour>
      <point x="196" y="-238" type="curve" smooth="yes"/>
      <point x="196" y="-305"/>
      <point x="148" y="-363"/>
      <point x="59" y="-363" type="curve" smooth="yes"/>
      <point x="-24" y="-363"/>
      <point x="-81" y="-305"/>
      <point x="-81" y="-238" type="curve" smooth="yes"/>
      <point x="-81" y="-176"/>
      <point x="-26" y="-116"/>
      <point x="59" y="-116" type="curve" smooth="yes"/>
      <point x="147" y="-116"/>
      <point x="196" y="-175"/>
    </contour>
    <contour>
      <point x="-103" y="-238" type="curve" smooth="yes"/>
      <point x="-103" y="-194"/>
      <point x="-143" y="-158"/>
      <point x="-203" y="-158" type="curve" smooth="yes"/>
      <point x="-257" y="-158"/>
      <point x="-296" y="-195"/>
      <point x="-296" y="-238" type="curve" smooth="yes"/>
      <point x="-296" y="-285"/>
      <point x="-258" y="-321"/>
      <point x="-203" y="-321" type="curve" smooth="yes"/>
      <point x="-144" y="-321"/>
      <point x="-103" y="-285"/>
    </contour>
    <contour>
      <point x="154" y="-238" type="curve" smooth="yes"/>
      <point x="154" y="-195"/>
      <point x="117" y="-158"/>
      <point x="59" y="-158" type="curve" smooth="yes"/>
      <point x="4" y="-158"/>
      <point x="-39" y="-194"/>
      <point x="-39" y="-238" type="curve"/>
      <point x="-39" y="-285"/>
      <point x="4" y="-321"/>
      <point x="59" y="-321" type="curve" smooth="yes"/>
      <point x="118" y="-321"/>
      <point x="154" y="-285"/>
    </contour>
  </outline>
</glyph>
<glyph name="knJI" format="1">
  <advance width="742"/>
  <outline>
    <contour>
      <point x="75" y="417" type="curve" smooth="yes"/>
      <point x="105" y="451"/>
      <point x="140" y="471"/>
      <point x="183" y="471" type="curve" smooth="yes"/>
      <point x="251" y="471"/>
      <point x="291" y="426"/>
      <point x="291" y="371" type="curve" smooth="yes"/>
      <point x="291" y="327"/>
      <point x="269" y="288"/>
      <point x="203" y="235" type="curve" smooth="yes"/>
      <point x="162" y="202"/>
      <point x="133" y="167"/>
      <point x="133" y="125" type="curve" smooth="yes"/>
      <point x="133" y="81"/>
      <point x="165" y="46"/>
      <point x="222" y="46" type="curve" smooth="yes"/>
      <point x="281" y="46"/>
      <point x="320" y="73"/>
      <point x="359" y="136" type="curve" smooth="yes"/>
      <point x="363" y="142"/>
      <point x="372" y="147"/>
      <point x="379" y="147" type="curve" smooth="yes"/>
      <point x="384" y="147" type="line" smooth="yes"/>
      <point x="391" y="147"/>
      <point x="400" y="142"/>
      <point x="403" y="136" type="curve" smooth="yes"/>
      <point x="440" y="79"/>
      <point x="480" y="46"/>
      <point x="545" y="46" type="curve" smooth="yes"/>
      <point x="602" y="46"/>
      <point x="637" y="84"/>
      <point x="637" y="130" type="curve" smooth="yes"/>
      <point x="637" y="166"/>
      <point x="625" y="195"/>
      <point x="600" y="217" type="curve" smooth="yes"/>
      <point x="591" y="225"/>
      <point x="589" y="240"/>
      <point x="598" y="249" type="curve" smooth="yes"/>
      <point x="606" y="258"/>
      <point x="621" y="260"/>
      <point x="630" y="251" type="curve" smooth="yes"/>
      <point x="665" y="221"/>
      <point x="683" y="180"/>
      <point x="683" y="130" type="curve" smooth="yes"/>
      <point x="683" y="60"/>
      <point x="632" y="0"/>
      <point x="545" y="0" type="curve" smooth="yes"/>
      <point x="464" y="0"/>
      <point x="412" y="39"/>
      <point x="365" y="112" type="curve"/>
      <point x="384" y="101" type="line"/>
      <point x="379" y="101" type="line"/>
      <point x="399" y="112" type="line"/>
      <point x="348" y="31"/>
      <point x="297" y="0"/>
      <point x="222" y="0" type="curve" smooth="yes"/>
      <point x="133" y="0"/>
      <point x="87" y="59"/>
      <point x="87" y="125" type="curve" smooth="yes"/>
      <point x="87" y="179"/>
      <point x="120" y="226"/>
      <point x="175" y="271" type="curve" smooth="yes"/>
      <point x="223" y="310"/>
      <point x="245" y="337"/>
      <point x="245" y="371" type="curve" smooth="yes"/>
      <point x="245" y="402"/>
      <point x="219" y="425"/>
      <point x="183" y="425" type="curve" smooth="yes"/>
      <point x="154" y="425"/>
      <point x="129" y="409"/>
      <point x="109" y="387" type="curve" smooth="yes"/>
      <point x="101" y="377"/>
      <point x="86" y="377"/>
      <point x="77" y="385" type="curve" smooth="yes"/>
      <point x="67" y="393"/>
      <point x="67" y="408"/>
    </contour>
    <contour>
      <point x="275" y="427" type="curve" smooth="yes"/>
      <point x="338" y="359"/>
      <point x="394" y="322"/>
      <point x="465" y="322" type="curve" smooth="yes"/>
      <point x="551" y="322"/>
      <point x="599" y="392"/>
      <point x="599" y="469" type="curve" smooth="yes"/>
      <point x="599" y="527"/>
      <point x="559" y="588"/>
      <point x="500" y="588" type="curve" smooth="yes"/>
      <point x="459" y="588"/>
      <point x="432" y="560"/>
      <point x="432" y="526" type="curve" smooth="yes"/>
      <point x="432" y="492"/>
      <point x="460" y="469"/>
      <point x="494" y="469" type="curve" smooth="yes"/>
      <point x="533" y="469"/>
      <point x="562" y="487"/>
      <point x="594" y="528" type="curve" smooth="yes"/>
      <point x="601" y="538"/>
      <point x="616" y="540"/>
      <point x="626" y="532" type="curve" smooth="yes"/>
      <point x="636" y="525"/>
      <point x="638" y="510"/>
      <point x="630" y="500" type="curve" smooth="yes"/>
      <point x="588" y="445"/>
      <point x="547" y="423"/>
      <point x="494" y="423" type="curve" smooth="yes"/>
      <point x="432" y="423"/>
      <point x="386" y="468"/>
      <point x="386" y="526" type="curve" smooth="yes"/>
      <point x="386" y="582"/>
      <point x="429" y="634"/>
      <point x="500" y="634" type="curve" smooth="yes"/>
      <point x="581" y="634"/>
      <point x="645" y="553"/>
      <point x="645" y="469" type="curve" smooth="yes"/>
      <point x="645" y="366"/>
      <point x="579" y="276"/>
      <point x="465" y="276" type="curve" smooth="yes"/>
      <point x="382" y="276"/>
      <point x="316" y="315"/>
      <point x="241" y="395" type="curve" smooth="yes"/>
      <point x="233" y="404"/>
      <point x="233" y="419"/>
      <point x="242" y="428" type="curve" smooth="yes"/>
      <point x="251" y="436"/>
      <point x="266" y="436"/>
    </contour>
  </outline>
</glyph>
<glyph name="knLI" format="1">
  <advance width="748.0"/>
  <outline>
    <contour>
      <point x="125" y="348" type="curve" smooth="yes"/>
      <point x="153" y="321"/>
      <point x="188" y="299"/>
      <point x="224" y="299" type="curve" smooth="yes"/>
      <point x="261" y="299"/>
      <point x="291" y="322"/>
      <point x="291" y="359" type="curve" smooth="yes"/>
      <point x="291" y="396"/>
      <point x="265" y="425"/>
      <point x="222" y="425" type="curve" smooth="yes"/>
      <point x="158" y="425"/>
      <point x="116" y="334"/>
      <point x="116" y="249" type="curve" smooth="yes"/>
      <point x="116" y="136"/>
      <point x="207" y="46"/>
      <point x="369" y="46" type="curve" smooth="yes"/>
      <point x="550" y="46"/>
      <point x="641" y="159"/>
      <point x="641" y="297" type="curve" smooth="yes"/>
      <point x="641" y="402"/>
      <point x="600" y="495"/>
      <point x="550" y="546" type="curve" smooth="yes"/>
      <point x="522" y="573"/>
      <point x="492" y="588"/>
      <point x="455" y="588" type="curve" smooth="yes"/>
      <point x="411" y="588"/>
      <point x="388" y="555"/>
      <point x="388" y="527" type="curve" smooth="yes"/>
      <point x="388" y="497"/>
      <point x="412" y="469"/>
      <point x="453" y="469" type="curve" smooth="yes"/>
      <point x="498" y="469"/>
      <point x="533" y="498"/>
      <point x="566" y="552" type="curve" smooth="yes"/>
      <point x="573" y="563"/>
      <point x="588" y="566"/>
      <point x="598" y="560" type="curve" smooth="yes"/>
      <point x="609" y="553"/>
      <point x="612" y="538"/>
      <point x="606" y="528" type="curve" smooth="yes"/>
      <point x="561" y="456"/>
      <point x="512" y="423"/>
      <point x="453" y="423" type="curve" smooth="yes"/>
      <point x="380" y="423"/>
      <point x="342" y="475"/>
      <point x="342" y="527" type="curve" smooth="yes"/>
      <point x="342" y="575"/>
      <point x="379" y="634"/>
      <point x="455" y="634" type="curve" smooth="yes"/>
      <point x="504" y="634"/>
      <point x="546" y="615"/>
      <point x="582" y="578" type="curve" smooth="yes"/>
      <point x="640" y="521"/>
      <point x="687" y="416"/>
      <point x="687" y="297" type="curve" smooth="yes"/>
      <point x="687" y="135"/>
      <point x="584" y="0"/>
      <point x="369" y="0" type="curve" smooth="yes"/>
      <point x="171" y="0"/>
      <point x="70" y="116"/>
      <point x="70" y="249" type="curve" smooth="yes"/>
      <point x="70" y="370"/>
      <point x="142" y="471"/>
      <point x="222" y="471" type="curve" smooth="yes"/>
      <point x="295" y="471"/>
      <point x="337" y="420"/>
      <point x="337" y="359" type="curve" smooth="yes"/>
      <point x="337" y="296"/>
      <point x="289" y="253"/>
      <point x="224" y="253" type="curve" smooth="yes"/>
      <point x="176" y="253"/>
      <point x="129" y="279"/>
      <point x="93" y="316" type="curve" smooth="yes"/>
      <point x="84" y="325"/>
      <point x="84" y="339"/>
      <point x="93" y="348" type="curve" smooth="yes"/>
      <point x="102" y="357"/>
      <point x="116" y="357"/>
    </contour>
  </outline>
</glyph>
<glyph name="knLLI" format="1">
  <advance width="717"/>
  <outline>
    <contour>
      <point x="352" y="185" type="curve" smooth="yes"/>
      <point x="352" y="185" type="line" smooth="yes"/>
      <point x="459" y="186"/>
      <point x="485" y="132"/>
      <point x="485" y="84" type="curve" smooth="yes"/>
      <point x="485" y="38"/>
      <point x="451" y="-16"/>
      <point x="352" y="-16" type="curve" smooth="yes"/>
      <point x="257" y="-16"/>
      <point x="220" y="38"/>
      <point x="220" y="85" type="curve" smooth="yes"/>
      <point x="220" y="132"/>
      <point x="250" y="184"/>
    </contour>
    <contour>
      <point x="352" y="139" type="line"/>
      <point x="298" y="138"/>
      <point x="266" y="116"/>
      <point x="266" y="85" type="curve" smooth="yes"/>
      <point x="266" y="54"/>
      <point x="301" y="30"/>
      <point x="352" y="30" type="curve" smooth="yes"/>
      <point x="405" y="30"/>
      <point x="439" y="54"/>
      <point x="439" y="84" type="curve" smooth="yes"/>
      <point x="439" y="116"/>
      <point x="411" y="140"/>
      <point x="352" y="139" type="curve"/>
    </contour>
    <contour>
      <point x="100" y="339" type="curve" smooth="yes"/>
      <point x="127" y="325"/>
      <point x="158" y="317"/>
      <point x="192" y="317" type="curve" smooth="yes"/>
      <point x="234" y="317"/>
      <point x="263" y="338"/>
      <point x="263" y="371" type="curve" smooth="yes"/>
      <point x="263" y="402"/>
      <point x="237" y="425"/>
      <point x="198" y="425" type="curve" smooth="yes"/>
      <point x="148" y="425"/>
      <point x="112" y="379"/>
      <point x="112" y="329" type="curve" smooth="yes"/>
      <point x="112" y="298"/>
      <point x="118" y="265"/>
      <point x="137" y="245" type="curve" smooth="yes"/>
      <point x="175" y="208"/>
      <point x="227" y="187"/>
      <point x="360" y="187" type="curve" smooth="yes"/>
      <point x="455" y="187"/>
      <point x="527" y="217"/>
      <point x="565" y="255" type="curve" smooth="yes"/>
      <point x="596" y="287"/>
      <point x="611" y="327"/>
      <point x="611" y="373" type="curve" smooth="yes"/>
      <point x="611" y="428"/>
      <point x="587" y="496"/>
      <point x="538" y="546" type="curve" smooth="yes"/>
      <point x="510" y="573"/>
      <point x="480" y="588"/>
      <point x="443" y="588" type="curve" smooth="yes"/>
      <point x="399" y="588"/>
      <point x="376" y="555"/>
      <point x="376" y="527" type="curve" smooth="yes"/>
      <point x="376" y="497"/>
      <point x="400" y="469"/>
      <point x="441" y="469" type="curve" smooth="yes"/>
      <point x="486" y="469"/>
      <point x="521" y="498"/>
      <point x="554" y="552" type="curve" smooth="yes"/>
      <point x="561" y="563"/>
      <point x="576" y="566"/>
      <point x="586" y="560" type="curve" smooth="yes"/>
      <point x="597" y="553"/>
      <point x="600" y="538"/>
      <point x="594" y="528" type="curve" smooth="yes"/>
      <point x="549" y="456"/>
      <point x="500" y="423"/>
      <point x="441" y="423" type="curve" smooth="yes"/>
      <point x="368" y="423"/>
      <point x="330" y="475"/>
      <point x="330" y="527" type="curve" smooth="yes"/>
      <point x="330" y="575"/>
      <point x="367" y="634"/>
      <point x="443" y="634" type="curve" smooth="yes"/>
      <point x="492" y="634"/>
      <point x="534" y="615"/>
      <point x="570" y="578" type="curve" smooth="yes"/>
      <point x="629" y="520"/>
      <point x="657" y="438"/>
      <point x="657" y="373" type="curve" smooth="yes"/>
      <point x="657" y="313"/>
      <point x="638" y="263"/>
      <point x="597" y="223" type="curve" smooth="yes"/>
      <point x="553" y="179"/>
      <point x="471" y="141"/>
      <point x="360" y="141" type="curve" smooth="yes"/>
      <point x="205" y="141"/>
      <point x="147" y="170"/>
      <point x="105" y="213" type="curve" smooth="yes"/>
      <point x="78" y="239"/>
      <point x="66" y="286"/>
      <point x="66" y="329" type="curve" smooth="yes"/>
      <point x="66" y="407"/>
      <point x="124" y="471"/>
      <point x="198" y="471" type="curve" smooth="yes"/>
      <point x="269" y="471"/>
      <point x="309" y="424"/>
      <point x="309" y="371" type="curve" smooth="yes"/>
      <point x="309" y="316"/>
      <point x="270" y="271"/>
      <point x="192" y="271" type="curve" smooth="yes"/>
      <point x="150" y="271"/>
      <point x="113" y="281"/>
      <point x="80" y="297" type="curve" smooth="yes"/>
      <point x="69" y="303"/>
      <point x="64" y="317"/>
      <point x="69" y="328" type="curve" smooth="yes"/>
      <point x="75" y="339"/>
      <point x="89" y="344"/>
    </contour>
  </outline>
</glyph>
<glyph name="knMI" format="1">
  <advance width="1029"/>
  <outline>
    <contour>
      <point x="656" y="138" type="curve" smooth="yes"/>
      <point x="700" y="72"/>
      <point x="746" y="46"/>
      <point x="800" y="46" type="curve" smooth="yes"/>
      <point x="878" y="46"/>
      <point x="916" y="97"/>
      <point x="916" y="169" type="curve" smooth="yes"/>
      <point x="916" y="245"/>
      <point x="872" y="335"/>
      <point x="816" y="397" type="curve" smooth="yes"/>
      <point x="808" y="406"/>
      <point x="808" y="421"/>
      <point x="818" y="429" type="curve" smooth="yes"/>
      <point x="827" y="437"/>
      <point x="842" y="437"/>
      <point x="850" y="427" type="curve" smooth="yes"/>
      <point x="914" y="357"/>
      <point x="962" y="255"/>
      <point x="962" y="169" type="curve" smooth="yes"/>
      <point x="962" y="69"/>
      <point x="906" y="0"/>
      <point x="800" y="0" type="curve" smooth="yes"/>
      <point x="732" y="0"/>
      <point x="674" y="28"/>
      <point x="618" y="112" type="curve" smooth="yes"/>
      <point x="611" y="123"/>
      <point x="614" y="137"/>
      <point x="624" y="144" type="curve" smooth="yes"/>
      <point x="635" y="151"/>
      <point x="649" y="148"/>
    </contour>
    <contour>
      <point x="192" y="193" type="curve" smooth="yes"/>
      <point x="145" y="186"/>
      <point x="116" y="156"/>
      <point x="116" y="118" type="curve" smooth="yes"/>
      <point x="116" y="76"/>
      <point x="152" y="46"/>
      <point x="204" y="46" type="curve" smooth="yes"/>
      <point x="271" y="46"/>
      <point x="309" y="75"/>
      <point x="341" y="135" type="curve" smooth="yes"/>
      <point x="344" y="142"/>
      <point x="353" y="147"/>
      <point x="361" y="147" type="curve" smooth="yes"/>
      <point x="366" y="147" type="line" smooth="yes"/>
      <point x="373" y="147"/>
      <point x="382" y="142"/>
      <point x="385" y="136" type="curve" smooth="yes"/>
      <point x="422" y="80"/>
      <point x="458" y="46"/>
      <point x="518" y="46" type="curve" smooth="yes"/>
      <point x="574" y="46"/>
      <point x="615" y="88"/>
      <point x="615" y="178" type="curve" smooth="yes"/>
      <point x="615" y="288"/>
      <point x="555" y="428"/>
      <point x="465" y="519" type="curve" smooth="yes"/>
      <point x="413" y="571"/>
      <point x="381" y="588"/>
      <point x="343" y="588" type="curve" smooth="yes"/>
      <point x="299" y="588"/>
      <point x="276" y="555"/>
      <point x="276" y="527" type="curve" smooth="yes"/>
      <point x="276" y="497"/>
      <point x="300" y="469"/>
      <point x="341" y="469" type="curve" smooth="yes"/>
      <point x="386" y="469"/>
      <point x="421" y="498"/>
      <point x="454" y="552" type="curve" smooth="yes"/>
      <point x="461" y="563"/>
      <point x="476" y="566"/>
      <point x="486" y="560" type="curve" smooth="yes"/>
      <point x="497" y="553"/>
      <point x="500" y="538"/>
      <point x="494" y="528" type="curve" smooth="yes"/>
      <point x="449" y="456"/>
      <point x="400" y="423"/>
      <point x="341" y="423" type="curve" smooth="yes"/>
      <point x="268" y="423"/>
      <point x="230" y="475"/>
      <point x="230" y="527" type="curve" smooth="yes"/>
      <point x="230" y="575"/>
      <point x="267" y="634"/>
      <point x="343" y="634" type="curve" smooth="yes"/>
      <point x="391" y="634"/>
      <point x="431" y="617"/>
      <point x="497" y="551" type="curve" smooth="yes"/>
      <point x="597" y="452"/>
      <point x="661" y="298"/>
      <point x="661" y="178" type="curve" smooth="yes"/>
      <point x="661" y="46"/>
      <point x="594" y="0"/>
      <point x="518" y="0" type="curve" smooth="yes"/>
      <point x="442" y="0"/>
      <point x="394" y="38"/>
      <point x="347" y="112" type="curve"/>
      <point x="366" y="101" type="line"/>
      <point x="361" y="101" type="line"/>
      <point x="381" y="113" type="line"/>
      <point x="339" y="35"/>
      <point x="289" y="0"/>
      <point x="204" y="0" type="curve" smooth="yes"/>
      <point x="120" y="0"/>
      <point x="70" y="54"/>
      <point x="70" y="118" type="curve" smooth="yes"/>
      <point x="70" y="176"/>
      <point x="109" y="228"/>
      <point x="186" y="239" type="curve" smooth="yes"/>
      <point x="198" y="241"/>
      <point x="210" y="232"/>
      <point x="212" y="219" type="curve" smooth="yes"/>
      <point x="214" y="207"/>
      <point x="205" y="195"/>
    </contour>
  </outline>
</glyph>
<glyph name="knNGE" format="1">
  <advance width="1085"/>
  <outline>
    <contour>
      <point x="433" y="364" type="curve" smooth="yes"/>
      <point x="464" y="364"/>
      <point x="485" y="336"/>
      <point x="485" y="313" type="curve" smooth="yes"/>
      <point x="485" y="286"/>
      <point x="464" y="262"/>
      <point x="433" y="262" type="curve" smooth="yes"/>
      <point x="406" y="262"/>
      <point x="382" y="285"/>
      <point x="382" y="314" type="curve" smooth="yes"/>
      <point x="382" y="336"/>
      <point x="405" y="364"/>
    </contour>
    <contour>
      <point x="433" y="318" type="curve" smooth="yes"/>
      <point x="431" y="318"/>
      <point x="428" y="316"/>
      <point x="428" y="314" type="curve" smooth="yes"/>
      <point x="428" y="311"/>
      <point x="430" y="308"/>
      <point x="433" y="308" type="curve" smooth="yes"/>
      <point x="436" y="308"/>
      <point x="439" y="310"/>
      <point x="439" y="313" type="curve" smooth="yes"/>
      <point x="439" y="316"/>
      <point x="436" y="318"/>
    </contour>
    <contour>
      <point x="75" y="418" type="curve" smooth="yes"/>
      <point x="105" y="452"/>
      <point x="140" y="472"/>
      <point x="183" y="472" type="curve" smooth="yes"/>
      <point x="251" y="472"/>
      <point x="291" y="427"/>
      <point x="291" y="372" type="curve" smooth="yes"/>
      <point x="291" y="328"/>
      <point x="269" y="289"/>
      <point x="203" y="236" type="curve" smooth="yes"/>
      <point x="162" y="203"/>
      <point x="133" y="168"/>
      <point x="133" y="126" type="curve" smooth="yes"/>
      <point x="133" y="82"/>
      <point x="165" y="47"/>
      <point x="222" y="47" type="curve" smooth="yes"/>
      <point x="281" y="47"/>
      <point x="320" y="74"/>
      <point x="359" y="137" type="curve" smooth="yes"/>
      <point x="363" y="143"/>
      <point x="372" y="148"/>
      <point x="379" y="148" type="curve" smooth="yes"/>
      <point x="384" y="148" type="line" smooth="yes"/>
      <point x="391" y="148"/>
      <point x="400" y="143"/>
      <point x="403" y="137" type="curve" smooth="yes"/>
      <point x="440" y="80"/>
      <point x="480" y="47"/>
      <point x="545" y="47" type="curve" smooth="yes"/>
      <point x="602" y="47"/>
      <point x="637" y="85"/>
      <point x="637" y="131" type="curve" smooth="yes"/>
      <point x="637" y="167"/>
      <point x="625" y="196"/>
      <point x="600" y="218" type="curve" smooth="yes"/>
      <point x="591" y="226"/>
      <point x="589" y="241"/>
      <point x="598" y="250" type="curve" smooth="yes"/>
      <point x="606" y="259"/>
      <point x="621" y="261"/>
      <point x="630" y="252" type="curve" smooth="yes"/>
      <point x="665" y="222"/>
      <point x="683" y="181"/>
      <point x="683" y="131" type="curve" smooth="yes"/>
      <point x="683" y="61"/>
      <point x="632" y="1"/>
      <point x="545" y="1" type="curve" smooth="yes"/>
      <point x="464" y="1"/>
      <point x="412" y="40"/>
      <point x="365" y="113" type="curve"/>
      <point x="384" y="102" type="line"/>
      <point x="379" y="102" type="line"/>
      <point x="399" y="113" type="line"/>
      <point x="348" y="32"/>
      <point x="297" y="1"/>
      <point x="222" y="1" type="curve" smooth="yes"/>
      <point x="133" y="1"/>
      <point x="87" y="60"/>
      <point x="87" y="126" type="curve" smooth="yes"/>
      <point x="87" y="180"/>
      <point x="120" y="227"/>
      <point x="175" y="272" type="curve" smooth="yes"/>
      <point x="223" y="311"/>
      <point x="245" y="338"/>
      <point x="245" y="372" type="curve" smooth="yes"/>
      <point x="245" y="403"/>
      <point x="219" y="426"/>
      <point x="183" y="426" type="curve" smooth="yes"/>
      <point x="154" y="426"/>
      <point x="129" y="410"/>
      <point x="109" y="388" type="curve" smooth="yes"/>
      <point x="101" y="378"/>
      <point x="86" y="378"/>
      <point x="77" y="386" type="curve" smooth="yes"/>
      <point x="67" y="394"/>
      <point x="67" y="409"/>
    </contour>
    <contour>
      <point x="245" y="346" type="curve" smooth="yes"/>
      <point x="289" y="480"/>
      <point x="369" y="524"/>
      <point x="448" y="524" type="curve" smooth="yes"/>
      <point x="523" y="524"/>
      <point x="583" y="491"/>
      <point x="642" y="405" type="curve" smooth="yes"/>
      <point x="679" y="351"/>
      <point x="713" y="323"/>
      <point x="757" y="323" type="curve" smooth="yes"/>
      <point x="810" y="323"/>
      <point x="842" y="361"/>
      <point x="842" y="435" type="curve" smooth="yes"/>
      <point x="842" y="447"/>
      <point x="853" y="458"/>
      <point x="865" y="458" type="curve" smooth="yes"/>
      <point x="877" y="458"/>
      <point x="888" y="447"/>
      <point x="888" y="435" type="curve" smooth="yes"/>
      <point x="888" y="321"/>
      <point x="832" y="277"/>
      <point x="757" y="277" type="curve" smooth="yes"/>
      <point x="701" y="277"/>
      <point x="653" y="307"/>
      <point x="604" y="379" type="curve" smooth="yes"/>
      <point x="557" y="449"/>
      <point x="509" y="478"/>
      <point x="448" y="478" type="curve" smooth="yes"/>
      <point x="383" y="478"/>
      <point x="323" y="436"/>
      <point x="289" y="332" type="curve" smooth="yes"/>
      <point x="285" y="320"/>
      <point x="272" y="313"/>
      <point x="260" y="317" type="curve" smooth="yes"/>
      <point x="248" y="321"/>
      <point x="241" y="334"/>
    </contour>
    <contour>
      <point x="771" y="456" type="curve" smooth="yes"/>
      <point x="886" y="456" type="line" smooth="yes"/>
      <point x="976" y="456"/>
      <point x="1014" y="487"/>
      <point x="1014" y="532" type="curve" smooth="yes"/>
      <point x="1014" y="566"/>
      <point x="987" y="589"/>
      <point x="951" y="589" type="curve" smooth="yes"/>
      <point x="908" y="589"/>
      <point x="880" y="553"/>
      <point x="880" y="508" type="curve" smooth="yes"/>
      <point x="880" y="483"/>
      <point x="887" y="458"/>
      <point x="890" y="444" type="curve" smooth="yes"/>
      <point x="893" y="432"/>
      <point x="886" y="419"/>
      <point x="874" y="416" type="curve" smooth="yes"/>
      <point x="862" y="413"/>
      <point x="849" y="420"/>
      <point x="846" y="432" type="curve" smooth="yes"/>
      <point x="841" y="450"/>
      <point x="834" y="479"/>
      <point x="834" y="508" type="curve" smooth="yes"/>
      <point x="834" y="583"/>
      <point x="884" y="635"/>
      <point x="951" y="635" type="curve" smooth="yes"/>
      <point x="1017" y="635"/>
      <point x="1060" y="590"/>
      <point x="1060" y="532" type="curve" smooth="yes"/>
      <point x="1060" y="471"/>
      <point x="1030" y="410"/>
      <point x="886" y="410" type="curve" smooth="yes"/>
      <point x="771" y="410" type="line" smooth="yes"/>
      <point x="759" y="410"/>
      <point x="748" y="421"/>
      <point x="748" y="433" type="curve" smooth="yes"/>
      <point x="748" y="445"/>
      <point x="759" y="456"/>
    </contour>
  </outline>
</glyph>
<glyph name="knNNI" format="1">
  <advance width="779"/>
  <outline>
    <contour>
      <point x="528" y="420" type="curve" smooth="yes"/>
      <point x="587" y="435"/>
      <point x="630" y="493"/>
      <point x="630" y="549" type="curve" smooth="yes"/>
      <point x="630" y="603"/>
      <point x="589" y="661"/>
      <point x="531" y="661" type="curve" smooth="yes"/>
      <point x="491" y="661"/>
      <point x="463" y="636"/>
      <point x="463" y="605" type="curve" smooth="yes"/>
      <point x="463" y="571"/>
      <point x="491" y="551"/>
      <point x="525" y="551" type="curve" smooth="yes"/>
      <point x="564" y="551"/>
      <point x="594" y="565"/>
      <point x="625" y="603" type="curve" smooth="yes"/>
      <point x="633" y="612"/>
      <point x="648" y="614"/>
      <point x="658" y="606" type="curve" smooth="yes"/>
      <point x="667" y="598"/>
      <point x="669" y="583"/>
      <point x="661" y="573" type="curve" smooth="yes"/>
      <point x="618" y="523"/>
      <point x="578" y="505"/>
      <point x="525" y="505" type="curve" smooth="yes"/>
      <point x="463" y="505"/>
      <point x="417" y="547"/>
      <point x="417" y="605" type="curve" smooth="yes"/>
      <point x="417" y="658"/>
      <point x="459" y="707"/>
      <point x="531" y="707" type="curve" smooth="yes"/>
      <point x="613" y="707"/>
      <point x="676" y="627"/>
      <point x="676" y="549" type="curve" smooth="yes"/>
      <point x="676" y="473"/>
      <point x="619" y="395"/>
      <point x="538" y="376" type="curve" smooth="yes"/>
      <point x="526" y="373"/>
      <point x="514" y="381"/>
      <point x="511" y="393" type="curve" smooth="yes"/>
      <point x="508" y="405"/>
      <point x="516" y="417"/>
    </contour>
    <contour>
      <point x="232" y="181" type="curve" smooth="yes"/>
      <point x="184" y="183"/>
      <point x="125" y="160"/>
      <point x="125" y="113" type="curve" smooth="yes"/>
      <point x="125" y="68"/>
      <point x="171" y="47"/>
      <point x="230" y="47" type="curve" smooth="yes"/>
      <point x="256" y="47"/>
      <point x="277" y="50"/>
      <point x="294" y="54" type="curve" smooth="yes"/>
      <point x="306" y="57"/>
      <point x="319" y="50"/>
      <point x="322" y="38" type="curve" smooth="yes"/>
      <point x="325" y="26"/>
      <point x="318" y="13"/>
      <point x="306" y="10" type="curve" smooth="yes"/>
      <point x="287" y="4"/>
      <point x="262" y="1"/>
      <point x="230" y="1" type="curve" smooth="yes"/>
      <point x="129" y="1"/>
      <point x="79" y="48"/>
      <point x="79" y="113" type="curve" smooth="yes"/>
      <point x="79" y="180"/>
      <point x="152" y="229"/>
      <point x="234" y="227" type="curve" smooth="yes"/>
      <point x="246" y="227"/>
      <point x="256" y="216"/>
      <point x="256" y="203" type="curve" smooth="yes"/>
      <point x="256" y="191"/>
      <point x="245" y="181"/>
    </contour>
    <contour>
      <point x="656" y="113" type="curve" smooth="yes"/>
      <point x="631" y="138"/>
      <point x="602" y="158"/>
      <point x="557" y="158" type="curve" smooth="yes"/>
      <point x="511" y="158"/>
      <point x="481" y="130"/>
      <point x="481" y="98" type="curve" smooth="yes"/>
      <point x="481" y="62"/>
      <point x="515" y="41"/>
      <point x="552" y="41" type="curve" smooth="yes"/>
      <point x="622" y="41"/>
      <point x="662" y="87"/>
      <point x="662" y="205" type="curve" smooth="yes"/>
      <point x="662" y="318"/>
      <point x="616" y="375"/>
      <point x="544" y="375" type="curve" smooth="yes"/>
      <point x="488" y="375"/>
      <point x="443" y="340"/>
      <point x="412" y="286" type="curve" smooth="yes"/>
      <point x="408" y="280"/>
      <point x="399" y="275"/>
      <point x="392" y="275" type="curve" smooth="yes"/>
      <point x="388" y="275" type="line" smooth="yes"/>
      <point x="380" y="275"/>
      <point x="371" y="280"/>
      <point x="368" y="287" type="curve" smooth="yes"/>
      <point x="339" y="341"/>
      <point x="295" y="375"/>
      <point x="230" y="375" type="curve" smooth="yes"/>
      <point x="174" y="375"/>
      <point x="137" y="343"/>
      <point x="137" y="304" type="curve" smooth="yes"/>
      <point x="137" y="260"/>
      <point x="184" y="227"/>
      <point x="246" y="227" type="curve" smooth="yes"/>
      <point x="250" y="227"/>
      <point x="252" y="227"/>
      <point x="256" y="227" type="curve" smooth="yes"/>
      <point x="268" y="227"/>
      <point x="279" y="216"/>
      <point x="279" y="204" type="curve" smooth="yes"/>
      <point x="279" y="192"/>
      <point x="268" y="181"/>
      <point x="256" y="181" type="curve" smooth="yes"/>
      <point x="252" y="181"/>
      <point x="250" y="181"/>
      <point x="246" y="181" type="curve" smooth="yes"/>
      <point x="146" y="181"/>
      <point x="91" y="242"/>
      <point x="91" y="304" type="curve" smooth="yes"/>
      <point x="91" y="363"/>
      <point x="138" y="421"/>
      <point x="230" y="421" type="curve" smooth="yes"/>
      <point x="313" y="421"/>
      <point x="371" y="379"/>
      <point x="408" y="309" type="curve"/>
      <point x="388" y="321" type="line"/>
      <point x="392" y="321" type="line"/>
      <point x="372" y="310" type="line"/>
      <point x="413" y="380"/>
      <point x="472" y="421"/>
      <point x="544" y="421" type="curve" smooth="yes"/>
      <point x="636" y="421"/>
      <point x="708" y="362"/>
      <point x="708" y="205" type="curve" smooth="yes"/>
      <point x="708" y="37"/>
      <point x="642" y="-5"/>
      <point x="552" y="-5" type="curve" smooth="yes"/>
      <point x="485" y="-5"/>
      <point x="435" y="40"/>
      <point x="435" y="98" type="curve" smooth="yes"/>
      <point x="435" y="150"/>
      <point x="477" y="204"/>
      <point x="557" y="204" type="curve" smooth="yes"/>
      <point x="616" y="204"/>
      <point x="655" y="178"/>
      <point x="688" y="147" type="curve" smooth="yes"/>
      <point x="697" y="138"/>
      <point x="697" y="123"/>
      <point x="689" y="114" type="curve" smooth="yes"/>
      <point x="680" y="105"/>
      <point x="665" y="105"/>
    </contour>
  </outline>
</glyph>
<glyph name="knRRI" format="1">
  <advance width="767"/>
  <outline>
    <contour>
      <point x="139" y="323" type="curve" smooth="yes"/>
      <point x="162" y="291"/>
      <point x="189" y="270"/>
      <point x="224" y="270" type="curve" smooth="yes"/>
      <point x="257" y="270"/>
      <point x="289" y="288"/>
      <point x="289" y="322" type="curve" smooth="yes"/>
      <point x="289" y="355"/>
      <point x="263" y="376"/>
      <point x="224" y="376" type="curve" smooth="yes"/>
      <point x="163" y="376"/>
      <point x="117" y="299"/>
      <point x="117" y="207" type="curve" smooth="yes"/>
      <point x="117" y="118"/>
      <point x="167" y="46"/>
      <point x="241" y="46" type="curve" smooth="yes"/>
      <point x="297" y="46"/>
      <point x="331" y="72"/>
      <point x="363" y="127" type="curve" smooth="yes"/>
      <point x="367" y="133"/>
      <point x="376" y="138"/>
      <point x="383" y="138" type="curve" smooth="yes"/>
      <point x="388" y="138" type="line" smooth="yes"/>
      <point x="395" y="138"/>
      <point x="404" y="133"/>
      <point x="408" y="127" type="curve" smooth="yes"/>
      <point x="440" y="72"/>
      <point x="474" y="46"/>
      <point x="530" y="46" type="curve" smooth="yes"/>
      <point x="604" y="46"/>
      <point x="654" y="118"/>
      <point x="654" y="207" type="curve" smooth="yes"/>
      <point x="654" y="299"/>
      <point x="608" y="376"/>
      <point x="547" y="376" type="curve" smooth="yes"/>
      <point x="508" y="376"/>
      <point x="482" y="355"/>
      <point x="482" y="322" type="curve" smooth="yes"/>
      <point x="482" y="288"/>
      <point x="514" y="270"/>
      <point x="547" y="270" type="curve" smooth="yes"/>
      <point x="582" y="270"/>
      <point x="609" y="291"/>
      <point x="632" y="323" type="curve" smooth="yes"/>
      <point x="640" y="333"/>
      <point x="655" y="335"/>
      <point x="665" y="328" type="curve" smooth="yes"/>
      <point x="675" y="320"/>
      <point x="677" y="305"/>
      <point x="670" y="295" type="curve" smooth="yes"/>
      <point x="637" y="251"/>
      <point x="596" y="224"/>
      <point x="547" y="224" type="curve" smooth="yes"/>
      <point x="484" y="224"/>
      <point x="436" y="264"/>
      <point x="436" y="322" type="curve" smooth="yes"/>
      <point x="436" y="379"/>
      <point x="476" y="422"/>
      <point x="547" y="422" type="curve" smooth="yes"/>
      <point x="624" y="422"/>
      <point x="700" y="339"/>
      <point x="700" y="207" type="curve" smooth="yes"/>
      <point x="700" y="84"/>
      <point x="626" y="0"/>
      <point x="530" y="0" type="curve" smooth="yes"/>
      <point x="456" y="0"/>
      <point x="410" y="32"/>
      <point x="368" y="103" type="curve"/>
      <point x="388" y="92" type="line"/>
      <point x="383" y="92" type="line"/>
      <point x="403" y="103" type="line"/>
      <point x="361" y="32"/>
      <point x="315" y="0"/>
      <point x="241" y="0" type="curve" smooth="yes"/>
      <point x="145" y="0"/>
      <point x="71" y="84"/>
      <point x="71" y="207" type="curve" smooth="yes"/>
      <point x="71" y="339"/>
      <point x="147" y="422"/>
      <point x="224" y="422" type="curve" smooth="yes"/>
      <point x="295" y="422"/>
      <point x="335" y="379"/>
      <point x="335" y="322" type="curve" smooth="yes"/>
      <point x="335" y="264"/>
      <point x="287" y="224"/>
      <point x="224" y="224" type="curve" smooth="yes"/>
      <point x="175" y="224"/>
      <point x="134" y="251"/>
      <point x="101" y="295" type="curve" smooth="yes"/>
      <point x="94" y="305"/>
      <point x="96" y="320"/>
      <point x="106" y="328" type="curve" smooth="yes"/>
      <point x="116" y="335"/>
      <point x="131" y="333"/>
    </contour>
    <contour>
      <point x="226" y="270" type="curve" smooth="yes"/>
      <point x="546" y="270" type="line" smooth="yes"/>
      <point x="558" y="270"/>
      <point x="569" y="259"/>
      <point x="569" y="247" type="curve" smooth="yes"/>
      <point x="569" y="235"/>
      <point x="558" y="224"/>
      <point x="546" y="224" type="curve" smooth="yes"/>
      <point x="226" y="224" type="line" smooth="yes"/>
      <point x="214" y="224"/>
      <point x="203" y="235"/>
      <point x="203" y="247" type="curve" smooth="yes"/>
      <point x="203" y="259"/>
      <point x="214" y="270"/>
    </contour>
    <contour>
      <point x="197" y="419" type="curve" smooth="yes"/>
      <point x="256" y="434"/>
      <point x="299" y="493"/>
      <point x="299" y="549" type="curve" smooth="yes"/>
      <point x="299" y="603"/>
      <point x="258" y="661"/>
      <point x="200" y="661" type="curve" smooth="yes"/>
      <point x="160" y="661"/>
      <point x="132" y="636"/>
      <point x="132" y="605" type="curve" smooth="yes"/>
      <point x="132" y="571"/>
      <point x="160" y="551"/>
      <point x="194" y="551" type="curve" smooth="yes"/>
      <point x="233" y="551"/>
      <point x="263" y="565"/>
      <point x="294" y="603" type="curve" smooth="yes"/>
      <point x="302" y="612"/>
      <point x="317" y="614"/>
      <point x="327" y="606" type="curve" smooth="yes"/>
      <point x="336" y="598"/>
      <point x="338" y="583"/>
      <point x="330" y="573" type="curve" smooth="yes"/>
      <point x="287" y="523"/>
      <point x="247" y="505"/>
      <point x="194" y="505" type="curve" smooth="yes"/>
      <point x="132" y="505"/>
      <point x="86" y="547"/>
      <point x="86" y="605" type="curve" smooth="yes"/>
      <point x="86" y="658"/>
      <point x="128" y="707"/>
      <point x="200" y="707" type="curve" smooth="yes"/>
      <point x="282" y="707"/>
      <point x="345" y="627"/>
      <point x="345" y="549" type="curve" smooth="yes"/>
      <point x="345" y="473"/>
      <point x="288" y="394"/>
      <point x="207" y="375" type="curve" smooth="yes"/>
      <point x="195" y="372"/>
      <point x="183" y="380"/>
      <point x="180" y="392" type="curve" smooth="yes"/>
      <point x="177" y="404"/>
      <point x="185" y="416"/>
    </contour>
  </outline>
</glyph>
<glyph name="knSA.base" format="1">
  <advance width="670"/>
  <outline>
    <contour>
      <point x="93" y="456" type="curve" smooth="yes"/>
      <point x="474" y="456" type="line" smooth="yes"/>
      <point x="486" y="456"/>
      <point x="497" y="445"/>
      <point x="497" y="433" type="curve" smooth="yes"/>
      <point x="497" y="421"/>
      <point x="486" y="410"/>
      <point x="474" y="410" type="curve" smooth="yes"/>
      <point x="93" y="410" type="line" smooth="yes"/>
      <point x="81" y="410"/>
      <point x="70" y="421"/>
      <point x="70" y="433" type="curve" smooth="yes"/>
      <point x="70" y="445"/>
      <point x="81" y="456"/>
    </contour>
    <contour>
      <point x="95" y="13" type="curve" smooth="yes"/>
      <point x="95" y="92"/>
      <point x="115" y="144"/>
      <point x="144" y="173" type="curve" smooth="yes"/>
      <point x="164" y="193"/>
      <point x="193" y="208"/>
      <point x="229" y="208" type="curve" smooth="yes"/>
      <point x="271" y="208"/>
      <point x="322" y="188"/>
      <point x="366" y="128" type="curve" smooth="yes"/>
      <point x="399" y="82"/>
      <point x="423" y="46"/>
      <point x="476" y="46" type="curve" smooth="yes"/>
      <point x="530" y="46"/>
      <point x="568" y="87"/>
      <point x="568" y="168" type="curve" smooth="yes"/>
      <point x="568" y="194"/>
      <point x="562" y="229"/>
      <point x="554" y="256" type="curve" smooth="yes"/>
      <point x="550" y="268"/>
      <point x="557" y="281"/>
      <point x="569" y="285" type="curve" smooth="yes"/>
      <point x="581" y="289"/>
      <point x="594" y="282"/>
      <point x="598" y="270" type="curve" smooth="yes"/>
      <point x="608" y="239"/>
      <point x="614" y="198"/>
      <point x="614" y="168" type="curve" smooth="yes"/>
      <point x="614" y="47"/>
      <point x="550" y="0"/>
      <point x="476" y="0" type="curve" smooth="yes"/>
      <point x="409" y="0"/>
      <point x="373" y="40"/>
      <point x="328" y="100" type="curve" smooth="yes"/>
      <point x="296" y="144"/>
      <point x="261" y="162"/>
      <point x="229" y="162" type="curve" smooth="yes"/>
      <point x="207" y="162"/>
      <point x="188" y="153"/>
      <point x="176" y="141" type="curve" smooth="yes"/>
      <point x="153" y="118"/>
      <point x="141" y="74"/>
      <point x="141" y="13" type="curve" smooth="yes"/>
      <point x="141" y="1"/>
      <point x="130" y="-10"/>
      <point x="118" y="-10" type="curve" smooth="yes"/>
      <point x="106" y="-10"/>
      <point x="95" y="1"/>
    </contour>
    <contour>
      <point x="313" y="413" type="curve" smooth="yes"/>
      <point x="292" y="394"/>
      <point x="284" y="372"/>
      <point x="284" y="352" type="curve" smooth="yes"/>
      <point x="284" y="320"/>
      <point x="311" y="292"/>
      <point x="353" y="292" type="curve" smooth="yes"/>
      <point x="397" y="292"/>
      <point x="422" y="319"/>
      <point x="422" y="353" type="curve" smooth="yes"/>
      <point x="422" y="373"/>
      <point x="415" y="395"/>
      <point x="393" y="415" type="curve" smooth="yes"/>
      <point x="384" y="424"/>
      <point x="384" y="439"/>
      <point x="392" y="448" type="curve" smooth="yes"/>
      <point x="401" y="457"/>
      <point x="416" y="457"/>
      <point x="425" y="449" type="curve" smooth="yes"/>
      <point x="457" y="419"/>
      <point x="468" y="383"/>
      <point x="468" y="353" type="curve" smooth="yes"/>
      <point x="468" y="297"/>
      <point x="429" y="246"/>
      <point x="353" y="246" type="curve" smooth="yes"/>
      <point x="279" y="246"/>
      <point x="238" y="298"/>
      <point x="238" y="352" type="curve" smooth="yes"/>
      <point x="238" y="382"/>
      <point x="250" y="418"/>
      <point x="281" y="447" type="curve" smooth="yes"/>
      <point x="291" y="455"/>
      <point x="305" y="455"/>
      <point x="314" y="446" type="curve" smooth="yes"/>
      <point x="322" y="436"/>
      <point x="322" y="422"/>
    </contour>
  </outline>
</glyph>
<glyph name="knSSAc2" format="1">
  <advance width="119"/>
  <outline>
    <contour>
      <point x="5" y="-121" type="curve" smooth="yes"/>
      <point x="161" y="-344" type="line" smooth="yes"/>
      <point x="168" y="-353"/>
      <point x="165" y="-367"/>
      <point x="156" y="-373" type="curve" smooth="yes"/>
      <point x="147" y="-380"/>
      <point x="133" y="-377"/>
      <point x="127" y="-368" type="curve" smooth="yes"/>
      <point x="-29" y="-145" type="line" smooth="yes"/>
      <point x="-36" y="-136"/>
      <point x="-33" y="-122"/>
      <point x="-24" y="-116" type="curve" smooth="yes"/>
      <point x="-15" y="-109"/>
      <point x="-1" y="-112"/>
    </contour>
    <component base="knPa" xOffset="-304" yOffset="-364"/>
    <component base="knPAc2"/>
    <component base="knPa" xOffset="-304" yOffset="-364"/>
    <component base="knPAc2"/>
  </outline>
</glyph>
<glyph name="knVU" format="1">
  <advance width="948"/>
  <outline>
    <contour>
      <point x="408" y="95" type="curve" smooth="yes"/>
      <point x="473" y="-35"/>
      <point x="543" y="-94"/>
      <point x="645" y="-94" type="curve" smooth="yes"/>
      <point x="763" y="-94"/>
      <point x="835" y="-7"/>
      <point x="835" y="140" type="curve" smooth="yes"/>
      <point x="835" y="238"/>
      <point x="797" y="323"/>
      <point x="732" y="397" type="curve" smooth="yes"/>
      <point x="724" y="406"/>
      <point x="724" y="421"/>
      <point x="734" y="429" type="curve" smooth="yes"/>
      <point x="743" y="437"/>
      <point x="758" y="437"/>
      <point x="766" y="427" type="curve" smooth="yes"/>
      <point x="839" y="345"/>
      <point x="881" y="250"/>
      <point x="881" y="140" type="curve" smooth="yes"/>
      <point x="881" y="-43"/>
      <point x="787" y="-140"/>
      <point x="645" y="-140" type="curve" smooth="yes"/>
      <point x="527" y="-140"/>
      <point x="443" y="-79"/>
      <point x="366" y="75" type="curve" smooth="yes"/>
      <point x="361" y="86"/>
      <point x="366" y="100"/>
      <point x="377" y="106" type="curve" smooth="yes"/>
      <point x="388" y="111"/>
      <point x="402" y="106"/>
    </contour>
    <component base="knVA"/>
    <component base="knVA"/>
  </outline>
</glyph>
<glyph name="ringcmb" format="1">
  <advance width="0"/>
  <outline>
    <contour>
      <point x="101" y="581" type="curve" smooth="yes"/>
      <point x="101" y="530"/>
      <point x="61" y="481"/>
      <point x="-8" y="481" type="curve" smooth="yes"/>
      <point x="-75" y="481"/>
      <point x="-114" y="533"/>
      <point x="-114" y="581" type="curve" smooth="yes"/>
      <point x="-114" y="629"/>
      <point x="-75" y="681"/>
      <point x="-8" y="681" type="curve" smooth="yes"/>
      <point x="61" y="681"/>
      <point x="101" y="632"/>
    </contour>
    <contour>
      <point x="57" y="581" type="curve" smooth="yes"/>
      <point x="57" y="612"/>
      <point x="31" y="637"/>
      <point x="-8" y="637" type="curve" smooth="yes"/>
      <point x="-45" y="637"/>
      <point x="-70" y="609"/>
      <point x="-70" y="581" type="curve" smooth="yes"/>
      <point x="-70" y="553"/>
      <point x="-45" y="525"/>
      <point x="-8" y="525" type="curve" smooth="yes"/>
      <point x="31" y="525"/>
      <point x="57" y="550"/>
    </contour>
  </outline>
</glyph>
<glyph name="twosuperior" format="1">
  <advance width="355"/>
  <outline>
    <contour>
      <point x="76" y="279" type="curve" smooth="yes"/>
      <point x="165" y="362" type="line" smooth="yes"/>
      <point x="214" y="409"/>
      <point x="234" y="426"/>
      <point x="234" y="455" type="curve" smooth="yes"/>
      <point x="234" y="476"/>
      <point x="213" y="492"/>
      <point x="181" y="492" type="curve" smooth="yes"/>
      <point x="156" y="492"/>
      <point x="137" y="485"/>
      <point x="116" y="471" type="curve" smooth="yes"/>
      <point x="106" y="465"/>
      <point x="92" y="468"/>
      <point x="85" y="478" type="curve" smooth="yes"/>
      <point x="79" y="488"/>
      <point x="82" y="502"/>
      <point x="92" y="509" type="curve" smooth="yes"/>
      <point x="121" y="527"/>
      <point x="148" y="536"/>
      <point x="181" y="536" type="curve" smooth="yes"/>
      <point x="251" y="536"/>
      <point x="278" y="494"/>
      <point x="278" y="455" type="curve" smooth="yes"/>
      <point x="278" y="418"/>
      <point x="262" y="393"/>
      <point x="195" y="330" type="curve" smooth="yes"/>
      <point x="106" y="247" type="line" smooth="yes"/>
      <point x="97" y="239"/>
      <point x="83" y="239"/>
      <point x="75" y="248" type="curve" smooth="yes"/>
      <point x="67" y="257"/>
      <point x="67" y="271"/>
    </contour>
    <contour>
      <point x="275" y="236" type="curve" smooth="yes"/>
      <point x="86" y="236" type="line" smooth="yes"/>
      <point x="74" y="236"/>
      <point x="64" y="246"/>
      <point x="64" y="258" type="curve" smooth="yes"/>
      <point x="64" y="270"/>
      <point x="74" y="280"/>
      <point x="86" y="280" type="curve" smooth="yes"/>
      <point x="275" y="280" type="line" smooth="yes"/>
      <point x="287" y="280"/>
      <point x="297" y="270"/>
      <point x="297" y="258" type="curve" smooth="yes"/>
      <point x="297" y="246"/>
      <point x="287" y="236"/>
    </contour>
  </outline>
</glyph>
<glyph name="uni2113" format="1">
  <advance width="362"/>
  <outline>
    <contour>
      <point x="45" y="140" type="curve" smooth="yes"/>
      <point x="126" y="169"/>
      <point x="171" y="194"/>
      <point x="203" y="226" type="curve" smooth="yes"/>
      <point x="230" y="253"/>
      <point x="257" y="317"/>
      <point x="257" y="377" type="curve" smooth="yes"/>
      <point x="257" y="432"/>
      <point x="250" y="509"/>
      <point x="195" y="509" type="curve" smooth="yes"/>
      <point x="139" y="509"/>
      <point x="137" y="446"/>
      <point x="137" y="391" type="curve" smooth="yes"/>
      <point x="137" y="94" type="line" smooth="yes"/>
      <point x="137" y="60"/>
      <point x="160" y="38"/>
      <point x="195" y="38" type="curve" smooth="yes"/>
      <point x="221" y="38"/>
      <point x="247" y="46"/>
      <point x="272" y="61" type="curve" smooth="yes"/>
      <point x="283" y="68"/>
      <point x="299" y="65"/>
      <point x="306" y="53" type="curve" smooth="yes"/>
      <point x="313" y="42"/>
      <point x="310" y="26"/>
      <point x="298" y="19" type="curve" smooth="yes"/>
      <point x="265" y="-2"/>
      <point x="229" y="-12"/>
      <point x="195" y="-12" type="curve" smooth="yes"/>
      <point x="130" y="-12"/>
      <point x="87" y="32"/>
      <point x="87" y="94" type="curve" smooth="yes"/>
      <point x="87" y="391" type="line" smooth="yes"/>
      <point x="87" y="492"/>
      <point x="115" y="559"/>
      <point x="195" y="559" type="curve" smooth="yes"/>
      <point x="270" y="559"/>
      <point x="307" y="476"/>
      <point x="307" y="377" type="curve" smooth="yes"/>
      <point x="307" y="303"/>
      <point x="272" y="223"/>
      <point x="239" y="190" type="curve" smooth="yes"/>
      <point x="203" y="154"/>
      <point x="152" y="125"/>
      <point x="61" y="92" type="curve" smooth="yes"/>
      <point x="49" y="88"/>
      <point x="34" y="95"/>
      <point x="29" y="108" type="curve" smooth="yes"/>
      <point x="25" y="120"/>
      <point x="32" y="135"/>
    </contour>
  </outline>
</glyph>
<glyph name="uni2206" format="1">
  <advance width="554"/>
  <outline>
    <contour>
      <point x="293" y="500" type="curve" smooth="yes"/>
      <point x="127" y="15" type="line" smooth="yes"/>
      <point x="122" y="2"/>
      <point x="108" y="-5"/>
      <point x="95" y="-1" type="curve" smooth="yes"/>
      <point x="82" y="4"/>
      <point x="75" y="18"/>
      <point x="79" y="31" type="curve" smooth="yes"/>
      <point x="245" y="516" type="line" smooth="yes"/>
      <point x="250" y="529"/>
      <point x="264" y="536"/>
      <point x="277" y="532" type="curve" smooth="yes"/>
      <point x="290" y="527"/>
      <point x="297" y="513"/>
    </contour>
    <contour>
      <point x="119" y="48" type="curve" smooth="yes"/>
      <point x="424" y="48" type="line" smooth="yes"/>
      <point x="438" y="48"/>
      <point x="449" y="37"/>
      <point x="449" y="23" type="curve" smooth="yes"/>
      <point x="449" y="10"/>
      <point x="438" y="-2"/>
      <point x="424" y="-2" type="curve" smooth="yes"/>
      <point x="119" y="-2" type="line" smooth="yes"/>
      <point x="106" y="-2"/>
      <point x="94" y="10"/>
      <point x="94" y="23" type="curve" smooth="yes"/>
      <point x="94" y="37"/>
      <point x="106" y="48"/>
    </contour>
    <contour>
      <point x="425" y="15" type="curve" smooth="yes"/>
      <point x="259" y="500" type="line" smooth="yes"/>
      <point x="255" y="513"/>
      <point x="262" y="527"/>
      <point x="275" y="532" type="curve" smooth="yes"/>
      <point x="288" y="536"/>
      <point x="302" y="529"/>
      <point x="307" y="516" type="curve" smooth="yes"/>
      <point x="473" y="31" type="line" smooth="yes"/>
      <point x="477" y="18"/>
      <point x="470" y="4"/>
      <point x="457" y="-1" type="curve" smooth="yes"/>
      <point x="444" y="-5"/>
      <point x="430" y="2"/>
    </contour>
  </outline>
</glyph>
